<svg xmlns="http://www.w3.org/2000/svg" xmlns:xlink="http://www.w3.org/1999/xlink" width="500" zoomAndPan="magnify" viewBox="0 0 375 374.999991" height="500" preserveAspectRatio="xMidYMid meet" version="1.0"><defs><clipPath id="276443f298"><path d="M 0 15.304688 L 374.960938 15.304688 L 374.960938 359.554688 L 0 359.554688 Z M 0 15.304688 " clip-rule="nonzero"/></clipPath></defs><g clip-path="url(#276443f298)"><path fill="#1472ff" d="M 308.734375 136.066406 C 309.21875 136.648438 309.804688 137.097656 310.488281 137.414062 C 311.175781 137.734375 311.894531 137.894531 312.648438 137.894531 L 336.019531 137.894531 C 336.773438 137.894531 337.492188 137.734375 338.179688 137.414062 C 338.863281 137.097656 339.449219 136.648438 339.933594 136.066406 L 349.734375 124.394531 C 350.535156 123.445312 350.933594 122.347656 350.933594 121.101562 L 350.933594 90.460938 L 369.179688 90.460938 C 369.515625 90.460938 369.847656 90.425781 370.175781 90.359375 C 370.503906 90.296875 370.824219 90.199219 371.132812 90.070312 C 371.441406 89.941406 371.734375 89.78125 372.011719 89.597656 C 372.292969 89.410156 372.550781 89.199219 372.785156 88.960938 C 373.023438 88.722656 373.234375 88.464844 373.417969 88.1875 C 373.605469 87.90625 373.761719 87.613281 373.890625 87.304688 C 374.015625 86.992188 374.113281 86.675781 374.179688 86.347656 C 374.242188 86.015625 374.277344 85.6875 374.277344 85.351562 L 374.277344 67.835938 C 374.277344 67.503906 374.242188 67.171875 374.175781 66.839844 C 374.113281 66.511719 374.015625 66.191406 373.886719 65.882812 C 373.757812 65.574219 373.601562 65.277344 373.414062 65 C 373.230469 64.722656 373.015625 64.464844 372.78125 64.226562 C 372.542969 63.988281 372.285156 63.777344 372.007812 63.589844 C 371.726562 63.40625 371.433594 63.246094 371.125 63.121094 C 370.8125 62.992188 370.492188 62.894531 370.164062 62.828125 C 369.835938 62.761719 369.503906 62.730469 369.167969 62.730469 L 350.929688 62.730469 L 350.929688 32.085938 C 350.929688 30.847656 350.535156 29.75 349.738281 28.800781 L 339.9375 17.132812 C 339.453125 16.550781 338.867188 16.101562 338.179688 15.785156 C 337.496094 15.464844 336.773438 15.304688 336.019531 15.304688 L 312.648438 15.304688 C 311.894531 15.304688 311.175781 15.464844 310.488281 15.785156 C 309.804688 16.105469 309.21875 16.554688 308.734375 17.132812 L 298.9375 28.804688 C 298.140625 29.753906 297.742188 30.851562 297.746094 32.089844 L 297.746094 62.734375 L 77.253906 62.734375 L 77.253906 32.085938 C 77.253906 30.84375 76.855469 29.75 76.058594 28.800781 L 66.261719 17.132812 C 65.773438 16.554688 65.191406 16.105469 64.503906 15.785156 C 63.820312 15.464844 63.101562 15.304688 62.34375 15.304688 L 38.976562 15.304688 C 38.222656 15.304688 37.5 15.464844 36.816406 15.785156 C 36.132812 16.105469 35.546875 16.554688 35.0625 17.132812 L 25.265625 28.804688 C 24.460938 29.757812 24.058594 30.859375 24.0625 32.109375 L 24.0625 62.753906 L 5.820312 62.753906 C 5.488281 62.753906 5.15625 62.785156 4.828125 62.851562 C 4.5 62.917969 4.183594 63.011719 3.871094 63.140625 C 3.5625 63.269531 3.269531 63.425781 2.992188 63.609375 C 2.714844 63.792969 2.457031 64.003906 2.21875 64.242188 C 1.980469 64.476562 1.769531 64.734375 1.582031 65.011719 C 1.398438 65.289062 1.238281 65.582031 1.109375 65.890625 C 0.980469 66.199219 0.882812 66.515625 0.816406 66.84375 C 0.75 67.171875 0.714844 67.503906 0.714844 67.835938 L 0.714844 85.347656 C 0.714844 85.683594 0.746094 86.015625 0.8125 86.34375 C 0.878906 86.671875 0.976562 86.992188 1.105469 87.300781 C 1.230469 87.609375 1.390625 87.90625 1.574219 88.183594 C 1.761719 88.464844 1.972656 88.722656 2.210938 88.957031 C 2.449219 89.195312 2.707031 89.40625 2.984375 89.59375 C 3.261719 89.78125 3.558594 89.9375 3.867188 90.066406 C 4.175781 90.191406 4.496094 90.289062 4.824219 90.355469 C 5.15625 90.421875 5.488281 90.453125 5.820312 90.453125 L 24.0625 90.453125 L 24.0625 121.109375 C 24.0625 122.351562 24.460938 123.445312 25.261719 124.394531 L 35.0625 136.066406 C 35.546875 136.648438 36.132812 137.097656 36.816406 137.414062 C 37.503906 137.734375 38.222656 137.894531 38.980469 137.894531 L 62.347656 137.894531 C 63.105469 137.894531 63.824219 137.734375 64.507812 137.414062 C 65.195312 137.097656 65.777344 136.648438 66.265625 136.066406 L 67.027344 135.136719 L 67.027344 321.175781 L 17.496094 321.175781 C 16.945312 321.175781 16.398438 321.203125 15.851562 321.257812 C 15.304688 321.3125 14.761719 321.394531 14.222656 321.503906 C 13.683594 321.609375 13.148438 321.746094 12.625 321.90625 C 12.097656 322.066406 11.582031 322.25 11.074219 322.460938 C 10.566406 322.671875 10.070312 322.90625 9.585938 323.167969 C 9.101562 323.425781 8.628906 323.707031 8.175781 324.015625 C 7.71875 324.320312 7.277344 324.648438 6.851562 324.996094 C 6.425781 325.34375 6.019531 325.714844 5.632812 326.101562 C 5.242188 326.492188 4.875 326.898438 4.527344 327.324219 C 4.179688 327.75 3.851562 328.191406 3.546875 328.648438 C 3.242188 329.105469 2.957031 329.574219 2.699219 330.058594 C 2.441406 330.542969 2.207031 331.039062 1.996094 331.546875 C 1.785156 332.054688 1.597656 332.574219 1.441406 333.097656 C 1.28125 333.625 1.148438 334.15625 1.039062 334.695312 C 0.933594 335.234375 0.851562 335.777344 0.796875 336.324219 C 0.742188 336.871094 0.714844 337.421875 0.714844 337.96875 L 0.714844 354.570312 C 0.714844 354.90625 0.746094 355.238281 0.8125 355.566406 C 0.875 355.898438 0.972656 356.21875 1.101562 356.527344 C 1.230469 356.835938 1.386719 357.132812 1.574219 357.410156 C 1.757812 357.691406 1.972656 357.949219 2.207031 358.1875 C 2.445312 358.425781 2.703125 358.636719 2.980469 358.824219 C 3.261719 359.007812 3.554688 359.167969 3.867188 359.296875 C 4.175781 359.425781 4.496094 359.519531 4.824219 359.585938 C 5.152344 359.652344 5.484375 359.683594 5.820312 359.683594 L 369.171875 359.683594 C 369.507812 359.683594 369.839844 359.652344 370.167969 359.585938 C 370.496094 359.519531 370.816406 359.421875 371.125 359.296875 C 371.433594 359.167969 371.730469 359.007812 372.007812 358.824219 C 372.285156 358.636719 372.542969 358.425781 372.78125 358.1875 C 373.019531 357.949219 373.230469 357.691406 373.414062 357.414062 C 373.601562 357.136719 373.757812 356.839844 373.886719 356.53125 C 374.015625 356.222656 374.113281 355.902344 374.179688 355.574219 C 374.242188 355.246094 374.277344 354.914062 374.277344 354.578125 L 374.277344 337.980469 C 374.273438 337.433594 374.246094 336.882812 374.191406 336.339844 C 374.136719 335.792969 374.058594 335.25 373.949219 334.710938 C 373.839844 334.171875 373.707031 333.640625 373.546875 333.113281 C 373.386719 332.589844 373.203125 332.070312 372.992188 331.566406 C 372.78125 331.058594 372.546875 330.5625 372.285156 330.078125 C 372.027344 329.59375 371.746094 329.121094 371.441406 328.664062 C 371.132812 328.210938 370.808594 327.769531 370.457031 327.34375 C 370.109375 326.917969 369.742188 326.511719 369.351562 326.125 C 368.964844 325.734375 368.558594 325.367188 368.132812 325.019531 C 367.710938 324.671875 367.269531 324.34375 366.8125 324.039062 C 366.355469 323.734375 365.886719 323.449219 365.402344 323.191406 C 364.917969 322.933594 364.421875 322.695312 363.914062 322.488281 C 363.40625 322.277344 362.890625 322.089844 362.363281 321.929688 C 361.839844 321.769531 361.304688 321.636719 360.769531 321.527344 C 360.230469 321.421875 359.6875 321.339844 359.140625 321.285156 C 358.59375 321.230469 358.046875 321.203125 357.496094 321.203125 L 307.957031 321.203125 L 307.957031 135.140625 Z M 364.066406 72.957031 L 364.066406 80.238281 L 350.929688 80.238281 L 350.929688 72.945312 Z M 307.957031 33.964844 L 315.03125 25.519531 L 333.636719 25.519531 L 340.710938 33.953125 L 340.710938 119.246094 L 333.636719 127.679688 L 315.03125 127.679688 L 307.957031 119.246094 Z M 297.738281 72.957031 L 297.738281 80.238281 L 77.253906 80.238281 L 77.253906 72.945312 Z M 216.585938 321.1875 L 216.585938 289.242188 L 252.070312 289.242188 C 252.40625 289.242188 252.738281 289.210938 253.066406 289.144531 C 253.394531 289.078125 253.714844 288.984375 254.023438 288.855469 C 254.335938 288.726562 254.628906 288.570312 254.90625 288.382812 C 255.1875 288.195312 255.445312 287.984375 255.679688 287.746094 C 255.917969 287.511719 256.128906 287.253906 256.316406 286.972656 C 256.503906 286.695312 256.660156 286.398438 256.789062 286.089844 C 256.917969 285.78125 257.011719 285.460938 257.078125 285.132812 C 257.144531 284.804688 257.175781 284.472656 257.175781 284.136719 L 257.175781 269.503906 C 257.175781 268.804688 257.140625 268.105469 257.078125 267.40625 C 257.011719 266.710938 256.914062 266.015625 256.78125 265.328125 C 256.652344 264.640625 256.492188 263.960938 256.296875 263.285156 C 256.105469 262.613281 255.882812 261.949219 255.628906 261.296875 C 255.371094 260.644531 255.089844 260.003906 254.773438 259.378906 C 254.460938 258.753906 254.117188 258.140625 253.75 257.546875 C 253.378906 256.953125 252.980469 256.378906 252.558594 255.820312 C 252.132812 255.261719 251.6875 254.722656 251.210938 254.207031 C 250.738281 253.691406 250.242188 253.199219 249.722656 252.730469 C 249.203125 252.257812 248.664062 251.8125 248.105469 251.394531 C 247.542969 250.972656 246.964844 250.578125 246.367188 250.210938 C 245.773438 249.847656 245.160156 249.507812 244.53125 249.199219 C 243.902344 248.886719 243.261719 248.609375 242.609375 248.355469 C 241.953125 248.105469 241.289062 247.886719 240.613281 247.699219 C 239.941406 247.507812 239.257812 247.351562 238.570312 247.226562 C 237.882812 247.101562 237.1875 247.007812 236.488281 246.945312 L 236.488281 165.035156 C 236.488281 164.128906 236.445312 163.226562 236.355469 162.324219 C 236.265625 161.421875 236.128906 160.527344 235.953125 159.636719 C 235.773438 158.75 235.554688 157.871094 235.289062 157.003906 C 235.027344 156.136719 234.722656 155.285156 234.375 154.449219 C 234.027344 153.609375 233.640625 152.792969 233.210938 151.992188 C 232.785156 151.195312 232.316406 150.417969 231.816406 149.664062 C 231.3125 148.910156 230.769531 148.183594 230.195312 147.484375 C 229.621094 146.78125 229.011719 146.113281 228.371094 145.472656 C 227.730469 144.832031 227.058594 144.222656 226.359375 143.648438 C 225.660156 143.074219 224.933594 142.535156 224.179688 142.03125 C 223.425781 141.527344 222.648438 141.0625 221.847656 140.632812 C 221.050781 140.207031 220.230469 139.820312 219.394531 139.472656 C 218.558594 139.125 217.703125 138.820312 216.835938 138.554688 C 215.96875 138.292969 215.09375 138.070312 214.203125 137.894531 C 213.316406 137.71875 212.417969 137.582031 211.515625 137.496094 C 210.617188 137.40625 209.710938 137.359375 208.804688 137.359375 L 166.191406 137.359375 C 165.285156 137.359375 164.382812 137.40625 163.480469 137.496094 C 162.578125 137.582031 161.683594 137.71875 160.792969 137.894531 C 159.90625 138.070312 159.027344 138.292969 158.160156 138.554688 C 157.292969 138.820312 156.441406 139.125 155.605469 139.472656 C 154.765625 139.820312 153.949219 140.207031 153.148438 140.632812 C 152.351562 141.0625 151.574219 141.527344 150.820312 142.03125 C 150.066406 142.535156 149.339844 143.074219 148.640625 143.648438 C 147.9375 144.222656 147.265625 144.832031 146.625 145.472656 C 145.984375 146.113281 145.378906 146.78125 144.800781 147.484375 C 144.226562 148.183594 143.6875 148.910156 143.183594 149.664062 C 142.679688 150.417969 142.214844 151.195312 141.785156 151.992188 C 141.359375 152.792969 140.972656 153.609375 140.625 154.449219 C 140.277344 155.285156 139.972656 156.136719 139.707031 157.003906 C 139.445312 157.871094 139.222656 158.75 139.046875 159.636719 C 138.867188 160.527344 138.734375 161.421875 138.644531 162.324219 C 138.554688 163.226562 138.507812 164.128906 138.507812 165.035156 L 138.507812 246.945312 C 137.8125 247.007812 137.117188 247.101562 136.429688 247.226562 C 135.738281 247.351562 135.058594 247.507812 134.382812 247.699219 C 133.707031 247.886719 133.042969 248.105469 132.390625 248.355469 C 131.734375 248.605469 131.09375 248.886719 130.46875 249.199219 C 129.839844 249.507812 129.226562 249.84375 128.628906 250.210938 C 128.03125 250.578125 127.453125 250.972656 126.894531 251.394531 C 126.332031 251.8125 125.792969 252.257812 125.273438 252.726562 C 124.753906 253.199219 124.257812 253.691406 123.785156 254.207031 C 123.3125 254.722656 122.863281 255.261719 122.441406 255.820312 C 122.015625 256.378906 121.621094 256.953125 121.25 257.546875 C 120.878906 258.140625 120.539062 258.753906 120.222656 259.378906 C 119.910156 260.003906 119.625 260.644531 119.371094 261.296875 C 119.117188 261.949219 118.894531 262.613281 118.699219 263.285156 C 118.507812 263.960938 118.34375 264.640625 118.214844 265.328125 C 118.085938 266.015625 117.988281 266.710938 117.921875 267.40625 C 117.855469 268.105469 117.824219 268.804688 117.820312 269.503906 L 117.820312 284.132812 C 117.820312 284.46875 117.855469 284.800781 117.917969 285.132812 C 117.984375 285.460938 118.082031 285.78125 118.210938 286.089844 C 118.339844 286.402344 118.496094 286.695312 118.683594 286.976562 C 118.871094 287.253906 119.082031 287.515625 119.320312 287.75 C 119.558594 287.988281 119.816406 288.199219 120.097656 288.386719 C 120.378906 288.574219 120.671875 288.730469 120.984375 288.859375 C 121.292969 288.988281 121.613281 289.082031 121.945312 289.148438 C 122.273438 289.210938 122.605469 289.246094 122.945312 289.242188 L 158.429688 289.242188 L 158.429688 321.1875 L 99.234375 321.1875 L 99.234375 90.480469 L 275.757812 90.480469 L 275.757812 321.1875 Z M 226.273438 246.84375 L 148.734375 246.84375 L 148.734375 165.035156 C 148.734375 164.464844 148.761719 163.894531 148.820312 163.324219 C 148.875 162.753906 148.960938 162.191406 149.074219 161.628906 C 149.183594 161.070312 149.324219 160.515625 149.492188 159.96875 C 149.65625 159.421875 149.847656 158.882812 150.070312 158.355469 C 150.289062 157.824219 150.53125 157.308594 150.800781 156.804688 C 151.074219 156.300781 151.367188 155.8125 151.683594 155.335938 C 152.003906 154.859375 152.34375 154.402344 152.707031 153.960938 C 153.070312 153.519531 153.453125 153.09375 153.855469 152.691406 C 154.261719 152.285156 154.683594 151.902344 155.125 151.539062 C 155.570312 151.175781 156.027344 150.835938 156.503906 150.519531 C 156.980469 150.203125 157.46875 149.90625 157.972656 149.636719 C 158.476562 149.367188 158.992188 149.125 159.523438 148.90625 C 160.050781 148.6875 160.589844 148.492188 161.136719 148.328125 C 161.683594 148.160156 162.238281 148.023438 162.796875 147.910156 C 163.359375 147.796875 163.925781 147.714844 164.492188 147.65625 C 165.0625 147.601562 165.632812 147.574219 166.203125 147.574219 L 208.800781 147.574219 C 209.375 147.574219 209.945312 147.601562 210.511719 147.65625 C 211.082031 147.714844 211.648438 147.796875 212.207031 147.910156 C 212.769531 148.023438 213.324219 148.160156 213.871094 148.328125 C 214.417969 148.492188 214.957031 148.6875 215.484375 148.90625 C 216.011719 149.125 216.527344 149.367188 217.03125 149.636719 C 217.539062 149.90625 218.027344 150.203125 218.503906 150.519531 C 218.976562 150.835938 219.4375 151.175781 219.878906 151.539062 C 220.320312 151.902344 220.746094 152.285156 221.148438 152.691406 C 221.554688 153.09375 221.9375 153.519531 222.300781 153.960938 C 222.664062 154.402344 223.003906 154.859375 223.320312 155.335938 C 223.640625 155.8125 223.933594 156.300781 224.203125 156.804688 C 224.472656 157.308594 224.71875 157.824219 224.9375 158.355469 C 225.15625 158.882812 225.347656 159.421875 225.515625 159.96875 C 225.683594 160.515625 225.820312 161.070312 225.933594 161.628906 C 226.046875 162.191406 226.128906 162.753906 226.1875 163.324219 C 226.242188 163.894531 226.273438 164.464844 226.273438 165.035156 Z M 140.46875 257.058594 L 234.515625 257.058594 C 235.332031 257.058594 236.140625 257.140625 236.941406 257.300781 C 237.742188 257.460938 238.523438 257.695312 239.277344 258.007812 C 240.03125 258.320312 240.746094 258.707031 241.425781 259.160156 C 242.105469 259.613281 242.734375 260.128906 243.3125 260.707031 C 243.890625 261.285156 244.40625 261.914062 244.859375 262.59375 C 245.316406 263.269531 245.699219 263.988281 246.011719 264.742188 C 246.324219 265.496094 246.5625 266.273438 246.722656 267.074219 C 246.882812 267.878906 246.960938 268.6875 246.964844 269.503906 L 246.964844 279.027344 L 128.03125 279.027344 L 128.03125 269.503906 C 128.03125 268.6875 128.113281 267.878906 128.273438 267.074219 C 128.433594 266.273438 128.667969 265.496094 128.984375 264.742188 C 129.296875 263.988281 129.679688 263.269531 130.132812 262.59375 C 130.589844 261.914062 131.105469 261.285156 131.683594 260.707031 C 132.257812 260.128906 132.886719 259.613281 133.566406 259.160156 C 134.246094 258.707031 134.964844 258.320312 135.71875 258.007812 C 136.472656 257.695312 137.25 257.460938 138.050781 257.300781 C 138.851562 257.140625 139.664062 257.058594 140.480469 257.058594 Z M 168.613281 289.238281 L 206.371094 289.238281 L 206.371094 321.183594 L 168.621094 321.183594 Z M 10.929688 80.238281 L 10.929688 72.945312 L 24.0625 72.945312 L 24.0625 80.238281 Z M 59.960938 127.667969 L 41.359375 127.667969 L 34.277344 119.246094 L 34.277344 33.964844 L 41.359375 25.519531 L 59.957031 25.519531 L 67.035156 33.953125 L 67.035156 119.246094 Z M 77.253906 90.457031 L 89.015625 90.457031 L 89.015625 321.164062 L 77.253906 321.164062 Z M 364.0625 337.945312 L 364.0625 349.472656 L 10.929688 349.472656 L 10.929688 337.980469 C 10.929688 337.550781 10.972656 337.125 11.054688 336.703125 C 11.140625 336.277344 11.265625 335.867188 11.429688 335.46875 C 11.59375 335.070312 11.796875 334.695312 12.039062 334.335938 C 12.277344 333.976562 12.550781 333.644531 12.855469 333.339844 C 13.160156 333.035156 13.488281 332.765625 13.847656 332.523438 C 14.207031 332.285156 14.585938 332.082031 14.984375 331.917969 C 15.382812 331.753906 15.792969 331.628906 16.214844 331.542969 C 16.636719 331.457031 17.0625 331.417969 17.496094 331.414062 L 357.496094 331.414062 C 357.925781 331.417969 358.351562 331.457031 358.773438 331.542969 C 359.199219 331.628906 359.605469 331.75 360.003906 331.917969 C 360.402344 332.082031 360.78125 332.285156 361.136719 332.523438 C 361.496094 332.761719 361.828125 333.03125 362.132812 333.335938 C 362.4375 333.640625 362.710938 333.972656 362.949219 334.328125 C 363.1875 334.6875 363.390625 335.066406 363.558594 335.460938 C 363.722656 335.859375 363.847656 336.269531 363.933594 336.691406 C 364.019531 337.113281 364.0625 337.539062 364.0625 337.96875 Z M 285.972656 321.160156 L 285.972656 90.453125 L 297.738281 90.453125 L 297.738281 321.160156 Z M 285.972656 321.160156 " fill-opacity="1" fill-rule="nonzero"/></g><path fill="#1472ff" d="M 174.542969 174.203125 L 200.457031 174.203125 C 200.789062 174.203125 201.121094 174.171875 201.453125 174.105469 C 201.78125 174.039062 202.101562 173.941406 202.410156 173.8125 C 202.71875 173.6875 203.015625 173.527344 203.292969 173.34375 C 203.570312 173.15625 203.828125 172.945312 204.066406 172.707031 C 204.304688 172.46875 204.515625 172.210938 204.703125 171.933594 C 204.886719 171.65625 205.046875 171.359375 205.171875 171.050781 C 205.300781 170.742188 205.398438 170.421875 205.464844 170.09375 C 205.53125 169.765625 205.5625 169.433594 205.5625 169.097656 C 205.5625 168.761719 205.53125 168.429688 205.464844 168.101562 C 205.398438 167.769531 205.300781 167.453125 205.171875 167.140625 C 205.046875 166.832031 204.886719 166.539062 204.703125 166.257812 C 204.515625 165.980469 204.304688 165.722656 204.066406 165.484375 C 203.828125 165.25 203.570312 165.035156 203.292969 164.851562 C 203.015625 164.664062 202.71875 164.507812 202.410156 164.378906 C 202.101562 164.25 201.78125 164.152344 201.453125 164.085938 C 201.121094 164.023438 200.789062 163.988281 200.457031 163.988281 L 174.542969 163.988281 C 174.207031 163.988281 173.875 164.023438 173.546875 164.085938 C 173.21875 164.152344 172.898438 164.25 172.589844 164.378906 C 172.277344 164.507812 171.984375 164.664062 171.707031 164.851562 C 171.425781 165.035156 171.167969 165.25 170.933594 165.484375 C 170.695312 165.722656 170.484375 165.980469 170.296875 166.257812 C 170.109375 166.539062 169.953125 166.832031 169.824219 167.140625 C 169.695312 167.453125 169.597656 167.769531 169.535156 168.101562 C 169.46875 168.429688 169.4375 168.761719 169.4375 169.097656 C 169.4375 169.433594 169.46875 169.765625 169.535156 170.09375 C 169.597656 170.421875 169.695312 170.742188 169.824219 171.050781 C 169.953125 171.359375 170.109375 171.65625 170.296875 171.933594 C 170.484375 172.210938 170.695312 172.46875 170.933594 172.707031 C 171.167969 172.945312 171.425781 173.15625 171.707031 173.34375 C 171.984375 173.527344 172.277344 173.6875 172.589844 173.8125 C 172.898438 173.941406 173.21875 174.039062 173.546875 174.105469 C 173.875 174.171875 174.207031 174.203125 174.542969 174.203125 Z M 174.542969 174.203125 " fill-opacity="1" fill-rule="nonzero"/><path fill="#1472ff" d="M 206.148438 188.152344 L 168.859375 188.152344 C 168.523438 188.152344 168.191406 188.183594 167.863281 188.25 C 167.535156 188.316406 167.214844 188.414062 166.90625 188.542969 C 166.59375 188.667969 166.300781 188.828125 166.023438 189.011719 C 165.742188 189.199219 165.484375 189.410156 165.25 189.648438 C 165.011719 189.886719 164.800781 190.144531 164.613281 190.421875 C 164.425781 190.699219 164.269531 190.996094 164.140625 191.304688 C 164.011719 191.613281 163.914062 191.933594 163.851562 192.261719 C 163.785156 192.59375 163.753906 192.925781 163.753906 193.257812 C 163.753906 193.59375 163.785156 193.925781 163.851562 194.253906 C 163.914062 194.585938 164.011719 194.902344 164.140625 195.214844 C 164.269531 195.523438 164.425781 195.816406 164.613281 196.097656 C 164.800781 196.375 165.011719 196.632812 165.25 196.871094 C 165.484375 197.109375 165.742188 197.320312 166.023438 197.503906 C 166.300781 197.691406 166.59375 197.847656 166.90625 197.976562 C 167.214844 198.105469 167.535156 198.203125 167.863281 198.269531 C 168.191406 198.332031 168.523438 198.367188 168.859375 198.367188 L 206.160156 198.367188 C 206.496094 198.367188 206.828125 198.332031 207.160156 198.269531 C 207.488281 198.203125 207.804688 198.105469 208.117188 197.976562 C 208.425781 197.847656 208.71875 197.691406 209 197.503906 C 209.277344 197.320312 209.535156 197.109375 209.773438 196.871094 C 210.011719 196.632812 210.222656 196.375 210.40625 196.097656 C 210.59375 195.816406 210.75 195.523438 210.878906 195.214844 C 211.007812 194.902344 211.105469 194.585938 211.171875 194.253906 C 211.234375 193.925781 211.269531 193.59375 211.269531 193.257812 C 211.269531 192.925781 211.234375 192.59375 211.171875 192.261719 C 211.105469 191.933594 211.007812 191.613281 210.878906 191.304688 C 210.75 190.996094 210.59375 190.699219 210.40625 190.421875 C 210.222656 190.144531 210.011719 189.886719 209.773438 189.648438 C 209.535156 189.410156 209.277344 189.199219 209 189.011719 C 208.71875 188.828125 208.425781 188.667969 208.117188 188.542969 C 207.804688 188.414062 207.488281 188.316406 207.160156 188.25 C 206.828125 188.183594 206.496094 188.152344 206.160156 188.152344 Z M 206.148438 188.152344 " fill-opacity="1" fill-rule="nonzero"/><path fill="#1472ff" d="M 200.457031 212.304688 L 174.542969 212.304688 C 174.207031 212.304688 173.875 212.335938 173.546875 212.402344 C 173.21875 212.46875 172.898438 212.566406 172.589844 212.691406 C 172.277344 212.820312 171.984375 212.976562 171.707031 213.164062 C 171.425781 213.351562 171.167969 213.5625 170.933594 213.800781 C 170.695312 214.035156 170.484375 214.296875 170.296875 214.574219 C 170.109375 214.851562 169.953125 215.148438 169.824219 215.457031 C 169.695312 215.765625 169.597656 216.085938 169.535156 216.414062 C 169.46875 216.742188 169.4375 217.074219 169.4375 217.410156 C 169.4375 217.746094 169.46875 218.078125 169.535156 218.40625 C 169.597656 218.734375 169.695312 219.054688 169.824219 219.367188 C 169.953125 219.675781 170.109375 219.96875 170.296875 220.25 C 170.484375 220.527344 170.695312 220.785156 170.933594 221.023438 C 171.167969 221.257812 171.425781 221.472656 171.707031 221.65625 C 171.984375 221.84375 172.277344 222 172.589844 222.128906 C 172.898438 222.257812 173.21875 222.355469 173.546875 222.417969 C 173.875 222.484375 174.207031 222.519531 174.542969 222.519531 L 200.457031 222.519531 C 200.789062 222.519531 201.121094 222.484375 201.453125 222.417969 C 201.78125 222.355469 202.101562 222.257812 202.410156 222.128906 C 202.71875 222 203.015625 221.84375 203.292969 221.65625 C 203.570312 221.472656 203.828125 221.257812 204.066406 221.023438 C 204.304688 220.785156 204.515625 220.527344 204.703125 220.25 C 204.886719 219.96875 205.046875 219.675781 205.171875 219.367188 C 205.300781 219.054688 205.398438 218.734375 205.464844 218.40625 C 205.53125 218.078125 205.5625 217.746094 205.5625 217.410156 C 205.5625 217.074219 205.53125 216.742188 205.464844 216.414062 C 205.398438 216.085938 205.300781 215.765625 205.171875 215.457031 C 205.046875 215.148438 204.886719 214.851562 204.703125 214.574219 C 204.515625 214.296875 204.304688 214.035156 204.066406 213.800781 C 203.828125 213.5625 203.570312 213.351562 203.292969 213.164062 C 203.015625 212.976562 202.71875 212.820312 202.410156 212.691406 C 202.101562 212.566406 201.78125 212.46875 201.453125 212.402344 C 201.121094 212.335938 200.789062 212.304688 200.457031 212.304688 Z M 200.457031 212.304688 " fill-opacity="1" fill-rule="nonzero"/></svg>