<svg xmlns="http://www.w3.org/2000/svg" xmlns:xlink="http://www.w3.org/1999/xlink" width="500" zoomAndPan="magnify" viewBox="0 0 375 374.999991" height="500" preserveAspectRatio="xMidYMid meet" version="1.0"><defs><clipPath id="9089773b9b"><path d="M 6.632812 6.632812 L 368.132812 6.632812 L 368.132812 368.132812 L 6.632812 368.132812 Z M 6.632812 6.632812 " clip-rule="nonzero"/></clipPath></defs><path fill="#1472ff" d="M 146.171875 286.945312 L 147.140625 298.578125 C 148.910156 298.433594 150.683594 298.359375 152.488281 298.359375 L 158.324219 298.359375 L 158.324219 286.683594 L 152.492188 286.683594 C 150.371094 286.683594 148.257812 286.769531 146.171875 286.945312 Z M 146.171875 286.945312 " fill-opacity="1" fill-rule="nonzero"/><path fill="#1472ff" d="M 83.550781 330.921875 L 94.148438 335.800781 C 95.148438 333.644531 96.265625 331.550781 97.496094 329.519531 C 98.730469 327.484375 100.066406 325.527344 101.515625 323.640625 C 102.960938 321.753906 104.507812 319.953125 106.152344 318.238281 C 107.796875 316.523438 109.527344 314.902344 111.351562 313.375 C 113.171875 311.851562 115.074219 310.429688 117.050781 309.113281 C 119.027344 307.796875 121.074219 306.589844 123.183594 305.5 C 125.292969 304.40625 127.457031 303.433594 129.675781 302.578125 C 131.894531 301.722656 134.152344 300.992188 136.449219 300.382812 L 133.53125 289.082031 C 130.808594 289.78125 128.132812 290.628906 125.507812 291.628906 C 122.878906 292.625 120.316406 293.765625 117.816406 295.050781 C 115.316406 296.335938 112.894531 297.753906 110.550781 299.308594 C 108.210938 300.859375 105.960938 302.539062 103.804688 304.34375 C 101.648438 306.148438 99.601562 308.066406 97.660156 310.097656 C 95.71875 312.128906 93.898438 314.265625 92.191406 316.5 C 90.488281 318.734375 88.914062 321.058594 87.472656 323.46875 C 86.027344 325.878906 84.71875 328.363281 83.550781 330.921875 Z M 83.550781 330.921875 " fill-opacity="1" fill-rule="nonzero"/><g clip-path="url(#9089773b9b)"><path fill="#1472ff" d="M 292.519531 266.214844 L 292.519531 240.007812 L 327.527344 240.007812 L 327.527344 234.175781 C 327.523438 233.222656 327.476562 232.269531 327.382812 231.316406 C 327.289062 230.367188 327.148438 229.421875 326.960938 228.488281 C 326.773438 227.550781 326.539062 226.625 326.261719 225.710938 C 325.984375 224.796875 325.664062 223.898438 325.296875 223.015625 C 324.929688 222.136719 324.523438 221.273438 324.070312 220.429688 C 323.621094 219.589844 323.128906 218.769531 322.601562 217.976562 C 322.070312 217.183594 321.5 216.417969 320.894531 215.679688 C 320.289062 214.941406 319.648438 214.234375 318.972656 213.558594 C 318.296875 212.882812 317.589844 212.242188 316.851562 211.636719 C 316.113281 211.027344 315.347656 210.460938 314.554688 209.929688 C 313.757812 209.398438 312.941406 208.910156 312.097656 208.457031 C 311.257812 208.007812 310.394531 207.597656 309.511719 207.234375 C 308.628906 206.867188 307.734375 206.542969 306.820312 206.265625 C 305.90625 205.988281 304.980469 205.757812 304.042969 205.570312 C 303.105469 205.382812 302.164062 205.242188 301.210938 205.148438 C 300.261719 205.050781 299.308594 205.003906 298.355469 205.003906 L 293.640625 205.003906 C 294.839844 203.785156 295.945312 202.484375 296.953125 201.101562 C 298.472656 199.015625 299.765625 196.796875 300.832031 194.445312 C 301.898438 192.097656 302.710938 189.664062 303.277344 187.144531 C 303.84375 184.628906 304.148438 182.078125 304.191406 179.5 C 304.230469 176.917969 304.011719 174.363281 303.53125 171.828125 L 293.71875 119.476562 C 293.292969 117.214844 292.722656 114.988281 292.003906 112.800781 C 291.285156 110.617188 290.425781 108.484375 289.425781 106.410156 C 288.429688 104.335938 287.296875 102.335938 286.035156 100.410156 C 284.773438 98.484375 283.390625 96.648438 281.886719 94.90625 C 280.386719 93.164062 278.773438 91.523438 277.054688 89.992188 C 275.339844 88.460938 273.527344 87.046875 271.621094 85.753906 C 269.71875 84.460938 267.738281 83.296875 265.679688 82.261719 C 263.621094 81.230469 261.507812 80.335938 259.332031 79.582031 C 260.414062 78.734375 261.453125 77.832031 262.445312 76.878906 C 263.4375 75.925781 264.378906 74.925781 265.269531 73.878906 C 266.160156 72.832031 266.996094 71.742188 267.777344 70.609375 C 268.558594 69.476562 269.277344 68.308594 269.941406 67.105469 C 270.605469 65.898438 271.203125 64.664062 271.742188 63.398438 C 272.28125 62.132812 272.753906 60.84375 273.160156 59.527344 C 273.570312 58.214844 273.910156 56.886719 274.183594 55.539062 C 274.457031 54.1875 274.660156 52.832031 274.796875 51.460938 C 274.933594 50.09375 275 48.722656 274.996094 47.347656 C 274.992188 45.972656 274.921875 44.601562 274.78125 43.230469 C 274.640625 41.863281 274.429688 40.507812 274.152344 39.160156 C 273.871094 37.8125 273.527344 36.484375 273.113281 35.171875 C 272.703125 33.859375 272.222656 32.570312 271.683594 31.308594 C 271.140625 30.042969 270.535156 28.8125 269.867188 27.609375 C 269.199219 26.40625 268.472656 25.242188 267.6875 24.113281 C 266.902344 22.980469 266.0625 21.894531 265.167969 20.851562 C 264.273438 19.808594 263.328125 18.8125 262.332031 17.863281 C 261.335938 16.914062 260.296875 16.015625 259.207031 15.171875 C 258.121094 14.328125 256.996094 13.542969 255.832031 12.8125 C 254.664062 12.082031 253.464844 11.414062 252.234375 10.804688 C 251 10.195312 249.738281 9.652344 248.449219 9.171875 C 247.160156 8.691406 245.851562 8.273438 244.523438 7.925781 C 243.191406 7.578125 241.847656 7.296875 240.488281 7.082031 C 239.128906 6.871094 237.765625 6.726562 236.390625 6.648438 C 235.019531 6.574219 233.644531 6.570312 232.269531 6.632812 C 230.898438 6.695312 229.53125 6.828125 228.167969 7.03125 C 226.808594 7.234375 225.460938 7.503906 224.128906 7.839844 C 222.796875 8.179688 221.484375 8.582031 220.191406 9.054688 C 218.898438 9.523438 217.632812 10.058594 216.394531 10.65625 C 215.15625 11.253906 213.953125 11.914062 212.78125 12.632812 C 211.609375 13.355469 210.476562 14.132812 209.382812 14.964844 C 208.289062 15.800781 207.242188 16.6875 206.238281 17.628906 C 205.234375 18.570312 204.28125 19.558594 203.375 20.59375 C 202.472656 21.632812 201.625 22.710938 200.828125 23.832031 C 200.035156 24.957031 199.300781 26.117188 198.621094 27.3125 C 197.945312 28.507812 197.328125 29.738281 196.777344 30.996094 C 196.222656 32.253906 195.734375 33.539062 195.3125 34.847656 C 194.886719 36.15625 194.53125 37.484375 194.242188 38.828125 C 193.953125 40.171875 193.730469 41.527344 193.578125 42.894531 C 193.425781 44.261719 193.339844 45.632812 193.328125 47.007812 C 193.3125 48.382812 193.367188 49.753906 193.492188 51.125 C 193.617188 52.492188 193.8125 53.855469 194.074219 55.203125 C 194.335938 56.554688 194.664062 57.886719 195.0625 59.203125 C 195.457031 60.519531 195.921875 61.8125 196.449219 63.085938 C 196.976562 64.355469 197.566406 65.59375 198.21875 66.804688 C 198.871094 68.015625 199.582031 69.191406 200.355469 70.328125 C 201.125 71.46875 201.953125 72.566406 202.835938 73.621094 C 203.714844 74.675781 204.648438 75.683594 205.632812 76.644531 L 158.328125 76.644531 L 158.328125 70.824219 C 158.335938 70.246094 158.316406 69.667969 158.265625 69.09375 C 158.21875 68.515625 158.140625 67.941406 158.035156 67.375 C 157.929688 66.804688 157.796875 66.242188 157.636719 65.6875 C 157.472656 65.128906 157.285156 64.582031 157.070312 64.046875 C 156.855469 63.507812 156.613281 62.984375 156.347656 62.46875 C 156.078125 61.957031 155.785156 61.457031 155.46875 60.972656 C 155.152344 60.488281 154.8125 60.023438 154.449219 59.570312 C 154.085938 59.121094 153.699219 58.6875 153.292969 58.277344 C 152.886719 57.863281 152.460938 57.472656 152.019531 57.101562 C 151.574219 56.734375 151.109375 56.386719 150.632812 56.0625 C 150.152344 55.738281 149.65625 55.4375 149.148438 55.160156 C 148.640625 54.886719 148.117188 54.636719 147.582031 54.414062 C 147.050781 54.191406 146.503906 53.992188 145.953125 53.824219 C 145.398438 53.65625 144.839844 53.511719 144.269531 53.398438 C 143.703125 53.285156 143.132812 53.199219 142.554688 53.140625 C 141.980469 53.085938 141.402344 53.054688 140.824219 53.054688 C 140.246094 53.054688 139.667969 53.085938 139.089844 53.140625 C 138.515625 53.199219 137.945312 53.285156 137.375 53.398438 C 136.808594 53.511719 136.246094 53.65625 135.695312 53.824219 C 135.140625 53.992188 134.597656 54.191406 134.0625 54.414062 C 133.53125 54.636719 133.007812 54.886719 132.5 55.160156 C 131.988281 55.4375 131.496094 55.738281 131.015625 56.0625 C 130.535156 56.386719 130.074219 56.734375 129.628906 57.101562 C 129.183594 57.472656 128.757812 57.863281 128.351562 58.277344 C 127.945312 58.6875 127.5625 59.121094 127.199219 59.570312 C 126.835938 60.023438 126.496094 60.488281 126.175781 60.972656 C 125.859375 61.457031 125.566406 61.957031 125.300781 62.46875 C 125.03125 62.984375 124.792969 63.507812 124.574219 64.046875 C 124.359375 64.582031 124.171875 65.128906 124.011719 65.6875 C 123.851562 66.242188 123.714844 66.804688 123.609375 67.375 C 123.503906 67.941406 123.429688 68.515625 123.378906 69.09375 C 123.332031 69.667969 123.3125 70.246094 123.320312 70.824219 L 123.320312 76.667969 L 120.390625 76.667969 C 119.730469 76.675781 119.070312 76.714844 118.410156 76.789062 C 117.75 76.863281 117.097656 76.964844 116.449219 77.101562 C 115.800781 77.238281 115.160156 77.40625 114.527344 77.605469 C 113.894531 77.804688 113.273438 78.03125 112.664062 78.292969 C 112.054688 78.550781 111.460938 78.839844 110.878906 79.15625 C 110.296875 79.472656 109.730469 79.820312 109.183594 80.191406 C 108.636719 80.5625 108.105469 80.960938 107.597656 81.386719 C 107.085938 81.808594 106.597656 82.257812 106.132812 82.726562 C 105.667969 83.199219 105.226562 83.691406 104.808594 84.207031 C 104.390625 84.71875 104 85.253906 103.632812 85.804688 C 103.265625 86.359375 102.929688 86.925781 102.617188 87.511719 C 102.308594 88.097656 102.027344 88.695312 101.773438 89.308594 C 101.519531 89.921875 101.300781 90.546875 101.109375 91.179688 C 100.917969 91.8125 100.757812 92.457031 100.628906 93.105469 C 100.496094 93.757812 100.402344 94.410156 100.335938 95.070312 C 100.269531 95.730469 100.238281 96.390625 100.238281 97.054688 C 100.234375 97.714844 100.265625 98.378906 100.332031 99.035156 C 100.394531 99.695312 100.488281 100.351562 100.617188 101 C 100.746094 101.652344 100.902344 102.292969 101.09375 102.929688 C 101.28125 103.5625 101.503906 104.1875 101.753906 104.800781 C 102.003906 105.414062 102.285156 106.015625 102.59375 106.601562 C 102.902344 107.1875 103.238281 107.757812 103.601562 108.308594 C 103.96875 108.863281 104.359375 109.398438 104.773438 109.914062 C 105.191406 110.429688 105.632812 110.921875 106.097656 111.394531 C 106.5625 111.867188 107.046875 112.316406 107.554688 112.742188 C 108.066406 113.164062 108.59375 113.566406 109.140625 113.9375 C 109.6875 114.3125 110.25 114.660156 110.832031 114.976562 C 111.414062 115.296875 112.007812 115.585938 112.617188 115.847656 C 113.226562 116.105469 113.847656 116.335938 114.480469 116.539062 C 115.109375 116.738281 115.75 116.90625 116.398438 117.046875 C 117.046875 117.183594 117.699219 117.289062 118.359375 117.363281 C 119.015625 117.4375 119.675781 117.480469 120.339844 117.492188 L 123.320312 117.492188 L 123.320312 158.328125 L 76.644531 158.328125 L 51.96875 64.976562 L 37.828125 64.976562 C 37.222656 64.976562 36.617188 64.992188 36.007812 65.03125 C 35.402344 65.066406 34.796875 65.117188 34.195312 65.1875 C 33.589844 65.257812 32.992188 65.347656 32.390625 65.453125 C 31.792969 65.558594 31.199219 65.683594 30.609375 65.824219 C 30.019531 65.964844 29.433594 66.121094 28.851562 66.296875 C 28.269531 66.472656 27.691406 66.664062 27.121094 66.871094 C 26.550781 67.082031 25.988281 67.304688 25.429688 67.546875 C 24.871094 67.789062 24.324219 68.046875 23.78125 68.320312 C 23.238281 68.59375 22.703125 68.882812 22.179688 69.1875 C 21.652344 69.492188 21.136719 69.8125 20.628906 70.148438 C 20.125 70.480469 19.628906 70.832031 19.140625 71.195312 C 18.65625 71.558594 18.179688 71.9375 17.714844 72.328125 C 17.25 72.71875 16.796875 73.125 16.359375 73.542969 C 15.917969 73.960938 15.488281 74.390625 15.074219 74.835938 C 14.65625 75.277344 14.253906 75.734375 13.867188 76.199219 C 13.476562 76.667969 13.101562 77.144531 12.742188 77.632812 C 12.382812 78.121094 12.035156 78.621094 11.703125 79.128906 C 11.371094 79.636719 11.054688 80.15625 10.753906 80.683594 C 10.449219 81.210938 10.164062 81.746094 9.894531 82.289062 C 9.625 82.832031 9.371094 83.382812 9.132812 83.941406 C 8.894531 84.5 8.671875 85.066406 8.464844 85.640625 C 8.261719 86.210938 8.074219 86.789062 7.902344 87.371094 C 7.730469 87.953125 7.578125 88.539062 7.4375 89.132812 C 7.300781 89.722656 7.183594 90.320312 7.078125 90.917969 C 6.976562 91.515625 6.894531 92.117188 6.824219 92.722656 C 6.757812 93.324219 6.707031 93.929688 6.675781 94.535156 C 6.644531 95.144531 6.632812 95.75 6.632812 96.359375 C 6.636719 96.964844 6.660156 97.574219 6.699219 98.179688 C 6.738281 98.785156 6.792969 99.390625 6.867188 99.992188 C 6.941406 100.59375 7.035156 101.195312 7.144531 101.792969 C 7.253906 102.390625 7.378906 102.984375 7.523438 103.574219 C 7.667969 104.164062 7.828125 104.75 8.007812 105.332031 L 30.1875 177.402344 L 64.878906 316.164062 C 61.078125 323.300781 58.195312 330.789062 56.238281 338.632812 C 54.28125 346.476562 53.304688 354.441406 53.308594 362.527344 L 53.308594 368.367188 L 368.367188 368.367188 L 368.367188 362.53125 C 368.359375 359.777344 368.242188 357.03125 368.007812 354.285156 C 367.773438 351.542969 367.425781 348.8125 366.964844 346.097656 C 366.507812 343.382812 365.933594 340.691406 365.25 338.027344 C 364.5625 335.359375 363.769531 332.726562 362.867188 330.125 C 361.960938 327.523438 360.953125 324.964844 359.835938 322.445312 C 358.71875 319.929688 357.5 317.464844 356.175781 315.046875 C 354.855469 312.632812 353.433594 310.277344 351.917969 307.980469 C 350.398438 305.679688 348.789062 303.449219 347.085938 301.289062 C 345.382812 299.125 343.589844 297.035156 341.714844 295.019531 C 339.835938 293.007812 337.878906 291.074219 335.839844 289.222656 C 333.800781 287.371094 331.691406 285.609375 329.503906 283.933594 C 327.320312 282.257812 325.070312 280.675781 322.753906 279.1875 C 320.4375 277.695312 318.0625 276.308594 315.628906 275.015625 C 313.195312 273.726562 310.714844 272.539062 308.183594 271.453125 C 305.652344 270.371094 303.082031 269.390625 300.46875 268.523438 C 297.855469 267.652344 295.210938 266.890625 292.535156 266.242188 Z M 280.851562 264.074219 C 276.980469 263.597656 273.089844 263.347656 269.1875 263.328125 L 269.1875 240.007812 L 280.851562 240.007812 Z M 230.535156 240 L 257.511719 240 L 257.511719 263.339844 L 225.535156 263.339844 Z M 298.34375 216.664062 C 299.242188 216.664062 300.136719 216.734375 301.023438 216.871094 C 301.914062 217.011719 302.785156 217.214844 303.640625 217.488281 C 304.5 217.761719 305.332031 218.097656 306.136719 218.5 C 306.941406 218.898438 307.710938 219.359375 308.445312 219.878906 C 309.179688 220.398438 309.871094 220.96875 310.515625 221.597656 C 311.164062 222.222656 311.757812 222.890625 312.300781 223.609375 C 312.84375 224.324219 313.328125 225.082031 313.753906 225.871094 C 314.183594 226.664062 314.546875 227.484375 314.847656 228.332031 L 233.035156 228.332031 L 235.539062 216.664062 L 298.355469 216.664062 Z M 205.003906 47.472656 C 205.003906 46.515625 205.050781 45.5625 205.144531 44.613281 C 205.238281 43.660156 205.378906 42.71875 205.5625 41.78125 C 205.75 40.84375 205.980469 39.917969 206.257812 39.003906 C 206.535156 38.089844 206.859375 37.191406 207.222656 36.308594 C 207.589844 35.425781 207.996094 34.5625 208.449219 33.71875 C 208.898438 32.875 209.390625 32.058594 209.921875 31.265625 C 210.449219 30.46875 211.019531 29.703125 211.625 28.964844 C 212.230469 28.226562 212.871094 27.519531 213.546875 26.84375 C 214.222656 26.167969 214.929688 25.527344 215.667969 24.921875 C 216.40625 24.316406 217.175781 23.746094 217.96875 23.214844 C 218.761719 22.683594 219.582031 22.195312 220.425781 21.742188 C 221.265625 21.292969 222.128906 20.886719 223.011719 20.519531 C 223.894531 20.152344 224.792969 19.832031 225.707031 19.554688 C 226.621094 19.277344 227.546875 19.046875 228.484375 18.859375 C 229.421875 18.671875 230.367188 18.53125 231.316406 18.4375 C 232.265625 18.34375 233.21875 18.296875 234.175781 18.296875 C 235.132812 18.296875 236.085938 18.34375 237.035156 18.4375 C 237.984375 18.53125 238.929688 18.671875 239.867188 18.859375 C 240.804688 19.046875 241.730469 19.277344 242.644531 19.554688 C 243.558594 19.832031 244.457031 20.152344 245.339844 20.519531 C 246.222656 20.886719 247.085938 21.292969 247.925781 21.742188 C 248.769531 22.195312 249.589844 22.683594 250.382812 23.214844 C 251.175781 23.746094 251.945312 24.316406 252.683594 24.921875 C 253.421875 25.527344 254.128906 26.167969 254.804688 26.84375 C 255.480469 27.519531 256.121094 28.226562 256.726562 28.964844 C 257.332031 29.703125 257.902344 30.46875 258.433594 31.265625 C 258.960938 32.058594 259.453125 32.875 259.902344 33.71875 C 260.355469 34.5625 260.761719 35.425781 261.128906 36.308594 C 261.492188 37.191406 261.816406 38.089844 262.09375 39.003906 C 262.371094 39.917969 262.601562 40.84375 262.789062 41.78125 C 262.972656 42.71875 263.113281 43.660156 263.207031 44.613281 C 263.300781 45.5625 263.347656 46.515625 263.347656 47.472656 C 263.347656 48.425781 263.300781 49.378906 263.207031 50.332031 C 263.113281 51.28125 262.972656 52.226562 262.789062 53.164062 C 262.601562 54.097656 262.371094 55.023438 262.09375 55.9375 C 261.816406 56.855469 261.492188 57.753906 261.128906 58.636719 C 260.761719 59.515625 260.355469 60.378906 259.902344 61.222656 C 259.453125 62.066406 258.960938 62.882812 258.433594 63.679688 C 257.902344 64.472656 257.332031 65.238281 256.726562 65.976562 C 256.121094 66.714844 255.480469 67.421875 254.804688 68.097656 C 254.128906 68.773438 253.421875 69.414062 252.683594 70.023438 C 251.945312 70.628906 251.175781 71.195312 250.382812 71.726562 C 249.589844 72.257812 248.769531 72.75 247.925781 73.199219 C 247.085938 73.648438 246.222656 74.058594 245.339844 74.421875 C 244.457031 74.789062 243.558594 75.109375 242.644531 75.386719 C 241.730469 75.664062 240.804688 75.894531 239.867188 76.082031 C 238.929688 76.269531 237.984375 76.410156 237.035156 76.503906 C 236.085938 76.597656 235.132812 76.644531 234.175781 76.644531 C 233.222656 76.640625 232.269531 76.59375 231.316406 76.5 C 230.367188 76.40625 229.421875 76.265625 228.488281 76.078125 C 227.550781 75.890625 226.625 75.65625 225.710938 75.378906 C 224.796875 75.101562 223.898438 74.78125 223.015625 74.414062 C 222.136719 74.046875 221.273438 73.640625 220.429688 73.1875 C 219.589844 72.738281 218.769531 72.246094 217.976562 71.71875 C 217.183594 71.1875 216.414062 70.617188 215.679688 70.011719 C 214.941406 69.40625 214.234375 68.765625 213.558594 68.089844 C 212.882812 67.414062 212.242188 66.707031 211.636719 65.96875 C 211.027344 65.230469 210.460938 64.464844 209.929688 63.671875 C 209.398438 62.875 208.910156 62.058594 208.457031 61.214844 C 208.007812 60.375 207.597656 59.511719 207.234375 58.628906 C 206.867188 57.746094 206.542969 56.847656 206.265625 55.9375 C 205.988281 55.023438 205.757812 54.097656 205.570312 53.160156 C 205.382812 52.222656 205.242188 51.28125 205.148438 50.328125 C 205.050781 49.378906 205.003906 48.425781 205.003906 47.472656 Z M 134.988281 70.824219 C 134.988281 70.441406 135.023438 70.0625 135.101562 69.6875 C 135.175781 69.3125 135.285156 68.945312 135.433594 68.59375 C 135.578125 68.238281 135.757812 67.902344 135.972656 67.585938 C 136.183594 67.265625 136.425781 66.972656 136.695312 66.699219 C 136.96875 66.429688 137.261719 66.1875 137.582031 65.976562 C 137.898438 65.761719 138.234375 65.582031 138.589844 65.4375 C 138.941406 65.289062 139.308594 65.179688 139.683594 65.105469 C 140.058594 65.03125 140.4375 64.992188 140.820312 64.992188 C 141.203125 64.992188 141.582031 65.03125 141.960938 65.105469 C 142.335938 65.179688 142.699219 65.289062 143.054688 65.4375 C 143.40625 65.582031 143.742188 65.761719 144.0625 65.976562 C 144.382812 66.1875 144.675781 66.429688 144.945312 66.699219 C 145.21875 66.972656 145.460938 67.265625 145.671875 67.585938 C 145.882812 67.902344 146.0625 68.238281 146.210938 68.59375 C 146.359375 68.945312 146.46875 69.3125 146.542969 69.6875 C 146.617188 70.0625 146.65625 70.441406 146.65625 70.824219 L 146.65625 76.667969 L 134.988281 76.667969 Z M 111.652344 97.066406 C 111.652344 96.492188 111.710938 95.921875 111.824219 95.359375 C 111.933594 94.796875 112.101562 94.25 112.320312 93.722656 C 112.542969 93.191406 112.808594 92.6875 113.128906 92.210938 C 113.449219 91.734375 113.808594 91.292969 114.214844 90.886719 C 114.621094 90.480469 115.0625 90.117188 115.539062 89.800781 C 116.015625 89.480469 116.519531 89.210938 117.050781 88.988281 C 117.578125 88.769531 118.125 88.601562 118.6875 88.488281 C 119.25 88.378906 119.816406 88.320312 120.390625 88.320312 L 242.109375 88.320312 C 243.289062 88.320312 244.464844 88.371094 245.640625 88.472656 C 246.8125 88.574219 247.980469 88.726562 249.144531 88.929688 C 250.304688 89.136719 251.457031 89.386719 252.59375 89.691406 C 253.734375 89.996094 254.859375 90.347656 255.96875 90.746094 C 257.078125 91.148438 258.167969 91.59375 259.238281 92.089844 C 260.308594 92.582031 261.355469 93.125 262.378906 93.710938 C 263.402344 94.292969 264.398438 94.921875 265.367188 95.59375 C 266.335938 96.265625 267.277344 96.980469 268.183594 97.730469 C 269.089844 98.484375 269.964844 99.273438 270.804688 100.105469 C 271.644531 100.933594 272.445312 101.796875 273.210938 102.691406 C 273.972656 103.589844 274.699219 104.519531 275.382812 105.480469 C 276.066406 106.441406 276.707031 107.429688 277.304688 108.445312 C 277.90625 109.460938 278.457031 110.503906 278.964844 111.566406 C 279.476562 112.628906 279.9375 113.714844 280.351562 114.816406 C 280.765625 115.921875 281.132812 117.042969 281.449219 118.175781 C 281.765625 119.3125 282.035156 120.460938 282.253906 121.621094 L 292.070312 173.972656 C 292.402344 175.734375 292.554688 177.507812 292.519531 179.296875 C 292.488281 181.085938 292.277344 182.855469 291.878906 184.601562 C 291.484375 186.347656 290.917969 188.035156 290.175781 189.667969 C 289.4375 191.296875 288.539062 192.832031 287.480469 194.277344 C 286.171875 195.992188 284.679688 197.527344 283.007812 198.890625 C 281.332031 200.25 279.523438 201.394531 277.582031 202.328125 C 275.636719 203.257812 273.609375 203.949219 271.5 204.402344 C 269.394531 204.855469 267.261719 205.054688 265.105469 205.003906 L 235.53125 205.003906 C 234.871094 205.007812 234.210938 205.066406 233.5625 205.179688 C 232.910156 205.296875 232.269531 205.464844 231.648438 205.6875 C 231.023438 205.910156 230.421875 206.179688 229.847656 206.503906 C 229.269531 206.828125 228.722656 207.199219 228.207031 207.617188 C 227.691406 208.03125 227.21875 208.488281 226.78125 208.984375 C 226.34375 209.480469 225.949219 210.011719 225.601562 210.574219 C 225.253906 211.140625 224.957031 211.726562 224.707031 212.339844 C 224.457031 212.953125 224.261719 213.585938 224.121094 214.230469 L 210.582031 277.449219 C 210.4375 278.097656 210.246094 278.726562 209.996094 279.34375 C 209.75 279.957031 209.453125 280.542969 209.105469 281.109375 C 208.757812 281.671875 208.363281 282.203125 207.925781 282.699219 C 207.488281 283.195312 207.011719 283.652344 206.5 284.070312 C 205.984375 284.484375 205.4375 284.855469 204.859375 285.179688 C 204.28125 285.503906 203.683594 285.777344 203.058594 286 C 202.433594 286.21875 201.796875 286.390625 201.144531 286.503906 C 200.492188 286.617188 199.835938 286.675781 199.175781 286.679688 C 198.363281 286.675781 197.558594 286.59375 196.765625 286.425781 C 196.015625 286.265625 195.289062 286.035156 194.582031 285.730469 C 193.878906 285.425781 193.210938 285.058594 192.578125 284.621094 C 191.945312 284.1875 191.359375 283.695312 190.824219 283.144531 C 190.289062 282.59375 189.816406 281.996094 189.398438 281.351562 C 188.980469 280.707031 188.628906 280.027344 188.347656 279.316406 C 188.0625 278.601562 187.851562 277.867188 187.714844 277.113281 C 187.574219 276.359375 187.511719 275.597656 187.523438 274.828125 C 187.535156 274.0625 187.621094 273.300781 187.785156 272.550781 L 201.324219 209.335938 C 201.535156 208.371094 201.789062 207.417969 202.082031 206.476562 C 202.375 205.53125 202.703125 204.601562 203.074219 203.6875 C 203.445312 202.773438 203.855469 201.875 204.300781 200.992188 C 204.746094 200.113281 205.230469 199.25 205.746094 198.410156 C 206.265625 197.570312 206.816406 196.753906 207.40625 195.960938 C 207.992188 195.164062 208.613281 194.398438 209.261719 193.65625 C 209.914062 192.914062 210.597656 192.199219 211.308594 191.515625 C 212.019531 190.832031 212.757812 190.175781 213.527344 189.554688 C 214.292969 188.933594 215.082031 188.34375 215.898438 187.789062 C 216.714844 187.230469 217.554688 186.710938 218.414062 186.226562 C 219.273438 185.742188 220.152344 185.292969 221.050781 184.878906 C 221.949219 184.46875 222.859375 184.097656 223.789062 183.761719 C 224.71875 183.425781 225.660156 183.132812 226.613281 182.875 C 227.570312 182.621094 228.53125 182.40625 229.503906 182.230469 C 230.476562 182.054688 231.453125 181.921875 232.4375 181.828125 C 233.417969 181.738281 234.402344 181.6875 235.390625 181.675781 L 242.472656 181.640625 L 230.109375 119.890625 C 229.910156 118.90625 229.628906 117.945312 229.265625 117.011719 C 228.902344 116.074219 228.460938 115.179688 227.945312 114.316406 C 227.425781 113.457031 226.839844 112.648438 226.183594 111.890625 C 225.527344 111.128906 224.8125 110.433594 224.035156 109.796875 C 223.257812 109.160156 222.433594 108.59375 221.5625 108.097656 C 220.6875 107.605469 219.78125 107.1875 218.835938 106.847656 C 217.890625 106.507812 216.925781 106.253906 215.9375 106.078125 C 214.945312 105.90625 213.953125 105.816406 212.949219 105.816406 L 120.339844 105.816406 C 119.765625 105.8125 119.199219 105.757812 118.640625 105.640625 C 118.078125 105.527344 117.535156 105.363281 117.003906 105.140625 C 116.476562 104.921875 115.976562 104.648438 115.5 104.332031 C 115.027344 104.011719 114.585938 103.648438 114.183594 103.242188 C 113.78125 102.835938 113.421875 102.394531 113.105469 101.917969 C 112.789062 101.441406 112.523438 100.9375 112.304688 100.40625 C 112.085938 99.878906 111.925781 99.332031 111.816406 98.769531 C 111.703125 98.207031 111.652344 97.640625 111.652344 97.070312 Z M 177.800781 263.347656 L 152.492188 263.347656 C 148.082031 263.351562 143.695312 263.648438 139.324219 264.238281 C 134.957031 264.832031 130.644531 265.710938 126.394531 266.882812 C 122.144531 268.054688 117.992188 269.503906 113.933594 271.234375 C 109.878906 272.960938 105.957031 274.953125 102.167969 277.210938 L 81.195312 193.332031 L 129.152344 193.332031 C 130.109375 193.332031 131.0625 193.285156 132.011719 193.1875 C 132.964844 193.09375 133.90625 192.953125 134.84375 192.765625 C 135.78125 192.578125 136.703125 192.347656 137.617188 192.070312 C 138.53125 191.792969 139.429688 191.46875 140.3125 191.101562 C 141.195312 190.738281 142.058594 190.328125 142.898438 189.878906 C 143.742188 189.425781 144.558594 188.9375 145.355469 188.40625 C 146.148438 187.875 146.914062 187.308594 147.652344 186.699219 C 148.390625 186.09375 149.097656 185.453125 149.773438 184.777344 C 150.449219 184.101562 151.089844 183.394531 151.695312 182.65625 C 152.300781 181.917969 152.871094 181.152344 153.398438 180.359375 C 153.929688 179.566406 154.421875 178.746094 154.871094 177.90625 C 155.324219 177.0625 155.730469 176.199219 156.097656 175.320312 C 156.464844 174.4375 156.785156 173.539062 157.0625 172.625 C 157.339844 171.710938 157.574219 170.785156 157.761719 169.847656 C 157.949219 168.914062 158.089844 167.96875 158.183594 167.019531 C 158.277344 166.066406 158.324219 165.113281 158.328125 164.160156 L 158.328125 117.480469 L 212.945312 117.480469 C 213.617188 117.480469 214.273438 117.59375 214.90625 117.824219 C 215.539062 118.050781 216.117188 118.378906 216.640625 118.808594 C 217.160156 119.238281 217.59375 119.742188 217.9375 120.320312 C 218.285156 120.898438 218.523438 121.519531 218.652344 122.179688 L 228.339844 170.582031 C 226.023438 170.957031 223.75 171.5 221.515625 172.214844 C 219.28125 172.925781 217.117188 173.800781 215.011719 174.839844 C 212.910156 175.875 210.898438 177.0625 208.972656 178.402344 C 207.046875 179.742188 205.234375 181.214844 203.527344 182.824219 C 201.824219 184.433594 200.25 186.164062 198.804688 188.007812 C 197.355469 189.851562 196.054688 191.796875 194.902344 193.835938 C 193.746094 195.875 192.75 197.992188 191.910156 200.179688 C 191.070312 202.367188 190.398438 204.609375 189.894531 206.898438 Z M 123.320312 169.992188 C 124.085938 169.992188 124.84375 169.917969 125.597656 169.765625 C 126.347656 169.617188 127.074219 169.394531 127.785156 169.101562 C 128.492188 168.808594 129.164062 168.449219 129.800781 168.023438 C 130.4375 167.597656 131.027344 167.113281 131.566406 166.574219 C 132.109375 166.03125 132.59375 165.441406 133.019531 164.804688 C 133.445312 164.167969 133.804688 163.496094 134.097656 162.789062 C 134.390625 162.082031 134.613281 161.351562 134.761719 160.601562 C 134.910156 159.851562 134.988281 159.09375 134.988281 158.328125 L 134.988281 117.480469 L 146.65625 117.480469 L 146.65625 164.160156 C 146.65625 164.734375 146.625 165.304688 146.570312 165.875 C 146.511719 166.445312 146.425781 167.011719 146.316406 167.574219 C 146.203125 168.136719 146.0625 168.691406 145.898438 169.238281 C 145.730469 169.789062 145.535156 170.328125 145.316406 170.855469 C 145.097656 171.386719 144.851562 171.902344 144.582031 172.40625 C 144.3125 172.914062 144.015625 173.402344 143.699219 173.878906 C 143.378906 174.355469 143.039062 174.816406 142.675781 175.257812 C 142.3125 175.703125 141.925781 176.125 141.523438 176.53125 C 141.117188 176.9375 140.691406 177.320312 140.25 177.683594 C 139.808594 178.050781 139.347656 178.390625 138.871094 178.707031 C 138.394531 179.027344 137.902344 179.320312 137.398438 179.59375 C 136.894531 179.863281 136.375 180.109375 135.847656 180.328125 C 135.316406 180.546875 134.777344 180.738281 134.230469 180.90625 C 133.679688 181.074219 133.125 181.214844 132.5625 181.324219 C 132 181.4375 131.4375 181.523438 130.867188 181.578125 C 130.296875 181.636719 129.722656 181.664062 129.148438 181.664062 L 64.957031 181.664062 L 64.957031 169.992188 Z M 18.296875 96.167969 C 18.300781 95.527344 18.332031 94.890625 18.394531 94.253906 C 18.457031 93.617188 18.554688 92.984375 18.679688 92.359375 C 18.804688 91.730469 18.960938 91.113281 19.144531 90.5 C 19.332031 89.890625 19.546875 89.289062 19.792969 88.695312 C 20.039062 88.105469 20.3125 87.53125 20.613281 86.964844 C 20.914062 86.402344 21.242188 85.855469 21.597656 85.324219 C 21.953125 84.792969 22.335938 84.277344 22.738281 83.785156 C 23.144531 83.289062 23.574219 82.816406 24.027344 82.367188 C 24.480469 81.914062 24.953125 81.484375 25.445312 81.078125 C 25.941406 80.671875 26.453125 80.292969 26.984375 79.9375 C 27.515625 79.582031 28.066406 79.253906 28.628906 78.953125 C 29.191406 78.652344 29.769531 78.378906 30.359375 78.132812 C 30.949219 77.890625 31.550781 77.671875 32.164062 77.488281 C 32.773438 77.300781 33.394531 77.144531 34.023438 77.019531 C 34.648438 76.894531 35.28125 76.800781 35.917969 76.738281 C 36.550781 76.675781 37.191406 76.644531 37.828125 76.644531 L 42.992188 76.644531 L 64.78125 158.328125 L 53.308594 158.328125 L 53.308594 169.992188 L 40.109375 169.992188 L 19.15625 101.902344 C 18.585938 100.035156 18.300781 98.125 18.296875 96.171875 Z M 43.269531 181.664062 L 53.300781 181.664062 L 53.300781 193.332031 L 69.167969 193.332031 L 91.890625 284.1875 C 84.957031 289.558594 78.84375 295.738281 73.546875 302.726562 Z M 65.167969 356.699219 C 65.261719 355.332031 65.386719 353.964844 65.542969 352.605469 C 65.703125 351.242188 65.890625 349.882812 66.109375 348.53125 C 66.332031 347.179688 66.585938 345.832031 66.867188 344.488281 C 67.152344 343.148438 67.46875 341.816406 67.816406 340.488281 C 68.160156 339.160156 68.539062 337.84375 68.949219 336.535156 C 69.355469 335.226562 69.796875 333.929688 70.265625 332.640625 C 70.734375 331.351562 71.234375 330.074219 71.761719 328.8125 C 72.292969 327.546875 72.851562 326.296875 73.441406 325.058594 C 74.027344 323.820312 74.644531 322.59375 75.289062 321.386719 C 75.9375 320.175781 76.609375 318.980469 77.3125 317.804688 C 78.011719 316.625 78.742188 315.464844 79.496094 314.320312 C 80.253906 313.179688 81.035156 312.050781 81.84375 310.945312 C 82.652344 309.839844 83.488281 308.75 84.347656 307.683594 C 85.207031 306.617188 86.09375 305.570312 87.003906 304.542969 C 87.910156 303.515625 88.84375 302.511719 89.800781 301.53125 C 90.757812 300.546875 91.734375 299.585938 92.734375 298.652344 C 93.738281 297.714844 94.761719 296.800781 95.804688 295.914062 C 96.847656 295.023438 97.914062 294.160156 98.996094 293.324219 C 100.082031 292.484375 101.183594 291.671875 102.308594 290.882812 C 103.429688 290.097656 104.570312 289.335938 105.730469 288.605469 C 106.886719 287.871094 108.0625 287.164062 109.253906 286.488281 C 110.445312 285.808594 111.652344 285.160156 112.875 284.539062 C 114.097656 283.917969 115.332031 283.324219 116.582031 282.761719 C 117.832031 282.195312 119.09375 281.664062 120.371094 281.160156 C 121.644531 280.652344 122.929688 280.179688 124.226562 279.734375 C 125.523438 279.292969 126.832031 278.878906 128.148438 278.496094 C 129.464844 278.113281 130.789062 277.761719 132.121094 277.441406 C 133.457031 277.121094 134.796875 276.832031 136.140625 276.574219 C 137.488281 276.316406 138.839844 276.09375 140.199219 275.898438 C 141.554688 275.703125 142.917969 275.542969 144.28125 275.410156 C 145.644531 275.28125 147.011719 275.183594 148.382812 275.117188 C 149.75 275.050781 151.121094 275.015625 152.492188 275.015625 L 175.855469 275.015625 C 175.851562 276.34375 175.960938 277.660156 176.183594 278.96875 C 176.40625 280.277344 176.734375 281.554688 177.175781 282.808594 C 177.617188 284.058594 178.160156 285.261719 178.808594 286.421875 C 179.453125 287.582031 180.195312 288.675781 181.03125 289.707031 C 181.863281 290.738281 182.777344 291.691406 183.777344 292.566406 C 184.773438 293.441406 185.839844 294.226562 186.96875 294.921875 C 188.101562 295.613281 189.28125 296.207031 190.515625 296.695312 C 191.746094 297.1875 193.011719 297.570312 194.3125 297.84375 C 195.058594 298.003906 195.8125 298.125 196.570312 298.210938 C 197.328125 298.292969 198.089844 298.34375 198.855469 298.351562 C 199.617188 298.363281 200.378906 298.335938 201.140625 298.269531 C 201.902344 298.207031 202.660156 298.105469 203.410156 297.964844 C 204.160156 297.824219 204.902344 297.652344 205.636719 297.4375 C 206.371094 297.226562 207.09375 296.980469 207.800781 296.699219 C 208.511719 296.414062 209.207031 296.097656 209.882812 295.746094 C 210.5625 295.398438 211.222656 295.015625 211.863281 294.597656 C 212.503906 294.183594 213.125 293.738281 213.722656 293.261719 C 214.316406 292.785156 214.890625 292.28125 215.4375 291.75 C 215.984375 291.214844 216.507812 290.660156 217 290.074219 C 217.492188 289.492188 217.957031 288.886719 218.390625 288.257812 C 218.824219 287.628906 219.222656 286.980469 219.59375 286.3125 C 219.964844 285.644531 220.300781 284.957031 220.601562 284.257812 C 220.90625 283.554688 221.171875 282.839844 221.40625 282.113281 C 221.636719 281.386719 221.835938 280.648438 221.996094 279.902344 L 223.046875 275.011719 L 269.1875 275.011719 C 270.554688 275.011719 271.925781 275.046875 273.296875 275.113281 C 274.664062 275.179688 276.03125 275.277344 277.398438 275.410156 C 278.761719 275.539062 280.121094 275.703125 281.480469 275.894531 C 282.835938 276.089844 284.1875 276.316406 285.535156 276.574219 C 286.878906 276.832031 288.21875 277.121094 289.550781 277.441406 C 290.886719 277.761719 292.210938 278.113281 293.527344 278.496094 C 294.84375 278.878906 296.148438 279.292969 297.445312 279.738281 C 298.742188 280.183594 300.027344 280.65625 301.304688 281.160156 C 302.578125 281.664062 303.839844 282.199219 305.089844 282.761719 C 306.339844 283.324219 307.574219 283.917969 308.796875 284.539062 C 310.019531 285.160156 311.226562 285.8125 312.417969 286.492188 C 313.609375 287.167969 314.78125 287.875 315.941406 288.609375 C 317.097656 289.339844 318.238281 290.101562 319.359375 290.886719 C 320.484375 291.675781 321.585938 292.488281 322.671875 293.328125 C 323.757812 294.164062 324.820312 295.027344 325.863281 295.917969 C 326.90625 296.804688 327.929688 297.71875 328.929688 298.65625 C 329.933594 299.59375 330.910156 300.550781 331.867188 301.535156 C 332.824219 302.515625 333.753906 303.519531 334.664062 304.546875 C 335.574219 305.574219 336.457031 306.621094 337.316406 307.6875 C 338.175781 308.753906 339.011719 309.84375 339.820312 310.949219 C 340.628906 312.058594 341.410156 313.183594 342.164062 314.324219 C 342.921875 315.46875 343.648438 316.628906 344.351562 317.808594 C 345.054688 318.984375 345.726562 320.179688 346.371094 321.386719 C 347.015625 322.597656 347.632812 323.820312 348.222656 325.058594 C 348.808594 326.296875 349.367188 327.550781 349.898438 328.8125 C 350.425781 330.078125 350.925781 331.355469 351.394531 332.644531 C 351.863281 333.929688 352.304688 335.230469 352.710938 336.539062 C 353.121094 337.847656 353.496094 339.164062 353.84375 340.488281 C 354.191406 341.816406 354.507812 343.148438 354.789062 344.492188 C 355.074219 345.832031 355.328125 347.179688 355.546875 348.53125 C 355.769531 349.886719 355.957031 351.242188 356.113281 352.605469 C 356.273438 353.964844 356.398438 355.332031 356.488281 356.699219 Z M 65.167969 356.699219 " fill-opacity="1" fill-rule="nonzero"/></g><path fill="#1472ff" d="M 234.1875 310.019531 L 187.5 310.019531 C 186.929688 310.03125 186.363281 310.066406 185.800781 310.128906 C 185.238281 310.195312 184.675781 310.285156 184.121094 310.402344 C 183.566406 310.519531 183.019531 310.664062 182.476562 310.835938 C 181.933594 311.007812 181.402344 311.207031 180.882812 311.429688 C 180.359375 311.652344 179.851562 311.898438 179.351562 312.171875 C 178.855469 312.445312 178.371094 312.742188 177.902344 313.0625 C 177.433594 313.382812 176.980469 313.722656 176.542969 314.089844 C 176.109375 314.453125 175.691406 314.835938 175.292969 315.242188 C 174.894531 315.644531 174.515625 316.066406 174.160156 316.507812 C 173.800781 316.949219 173.46875 317.40625 173.152344 317.882812 C 172.839844 318.355469 172.550781 318.84375 172.285156 319.34375 C 172.023438 319.847656 171.78125 320.363281 171.566406 320.886719 C 171.351562 321.410156 171.160156 321.945312 171 322.492188 C 170.835938 323.035156 170.699219 323.585938 170.589844 324.140625 C 170.480469 324.699219 170.398438 325.261719 170.339844 325.824219 C 170.285156 326.390625 170.257812 326.957031 170.257812 327.523438 C 170.257812 328.09375 170.285156 328.660156 170.339844 329.222656 C 170.398438 329.789062 170.480469 330.351562 170.589844 330.90625 C 170.699219 331.464844 170.835938 332.015625 171 332.558594 C 171.160156 333.101562 171.351562 333.636719 171.566406 334.160156 C 171.78125 334.6875 172.023438 335.199219 172.285156 335.703125 C 172.550781 336.203125 172.839844 336.691406 173.152344 337.167969 C 173.46875 337.640625 173.800781 338.097656 174.160156 338.539062 C 174.515625 338.980469 174.894531 339.402344 175.292969 339.808594 C 175.691406 340.210938 176.109375 340.597656 176.542969 340.960938 C 176.980469 341.324219 177.433594 341.667969 177.902344 341.984375 C 178.371094 342.304688 178.855469 342.601562 179.351562 342.875 C 179.851562 343.148438 180.359375 343.394531 180.882812 343.621094 C 181.402344 343.84375 181.933594 344.039062 182.476562 344.210938 C 183.019531 344.382812 183.566406 344.527344 184.121094 344.644531 C 184.675781 344.765625 185.238281 344.855469 185.800781 344.917969 C 186.363281 344.984375 186.929688 345.019531 187.5 345.027344 L 234.1875 345.027344 C 234.753906 345.019531 235.320312 344.984375 235.886719 344.917969 C 236.449219 344.855469 237.007812 344.765625 237.566406 344.644531 C 238.121094 344.527344 238.667969 344.382812 239.210938 344.210938 C 239.75 344.039062 240.28125 343.84375 240.804688 343.621094 C 241.328125 343.394531 241.835938 343.148438 242.335938 342.875 C 242.832031 342.601562 243.316406 342.304688 243.785156 341.984375 C 244.253906 341.667969 244.707031 341.324219 245.140625 340.960938 C 245.578125 340.597656 245.996094 340.210938 246.394531 339.808594 C 246.792969 339.402344 247.171875 338.980469 247.527344 338.539062 C 247.882812 338.097656 248.21875 337.640625 248.53125 337.167969 C 248.84375 336.691406 249.132812 336.203125 249.398438 335.703125 C 249.664062 335.199219 249.90625 334.6875 250.121094 334.160156 C 250.335938 333.636719 250.523438 333.101562 250.6875 332.558594 C 250.851562 332.015625 250.988281 331.464844 251.097656 330.90625 C 251.207031 330.351562 251.289062 329.789062 251.34375 329.222656 C 251.398438 328.660156 251.425781 328.09375 251.425781 327.523438 C 251.425781 326.957031 251.398438 326.390625 251.34375 325.824219 C 251.289062 325.261719 251.207031 324.699219 251.097656 324.140625 C 250.988281 323.585938 250.851562 323.035156 250.6875 322.492188 C 250.523438 321.945312 250.335938 321.414062 250.121094 320.886719 C 249.90625 320.363281 249.664062 319.847656 249.398438 319.347656 C 249.132812 318.84375 248.84375 318.355469 248.53125 317.882812 C 248.21875 317.40625 247.882812 316.949219 247.527344 316.507812 C 247.171875 316.066406 246.792969 315.644531 246.394531 315.242188 C 245.996094 314.835938 245.578125 314.453125 245.140625 314.089844 C 244.707031 313.722656 244.253906 313.382812 243.785156 313.0625 C 243.316406 312.742188 242.832031 312.445312 242.335938 312.171875 C 241.835938 311.898438 241.328125 311.652344 240.804688 311.429688 C 240.28125 311.207031 239.75 311.007812 239.210938 310.835938 C 238.667969 310.664062 238.121094 310.519531 237.566406 310.402344 C 237.007812 310.285156 236.449219 310.195312 235.886719 310.128906 C 235.320312 310.066406 234.753906 310.03125 234.1875 310.019531 Z M 234.1875 333.359375 L 187.5 333.359375 C 187.117188 333.359375 186.734375 333.324219 186.359375 333.246094 C 185.984375 333.171875 185.621094 333.0625 185.265625 332.914062 C 184.914062 332.769531 184.574219 332.589844 184.257812 332.375 C 183.9375 332.164062 183.644531 331.921875 183.375 331.652344 C 183.101562 331.378906 182.859375 331.085938 182.648438 330.765625 C 182.433594 330.449219 182.253906 330.113281 182.109375 329.757812 C 181.960938 329.40625 181.851562 329.039062 181.777344 328.664062 C 181.703125 328.289062 181.664062 327.910156 181.664062 327.527344 C 181.664062 327.144531 181.703125 326.765625 181.777344 326.386719 C 181.851562 326.011719 181.960938 325.648438 182.109375 325.292969 C 182.253906 324.941406 182.433594 324.605469 182.648438 324.285156 C 182.859375 323.964844 183.101562 323.671875 183.375 323.402344 C 183.644531 323.128906 183.9375 322.886719 184.257812 322.675781 C 184.574219 322.464844 184.914062 322.285156 185.265625 322.136719 C 185.621094 321.988281 185.984375 321.878906 186.359375 321.804688 C 186.734375 321.730469 187.117188 321.691406 187.5 321.691406 L 234.1875 321.691406 C 234.570312 321.691406 234.949219 321.730469 235.324219 321.804688 C 235.703125 321.878906 236.066406 321.988281 236.421875 322.136719 C 236.773438 322.285156 237.109375 322.464844 237.429688 322.675781 C 237.746094 322.886719 238.042969 323.128906 238.3125 323.402344 C 238.582031 323.671875 238.824219 323.964844 239.039062 324.285156 C 239.25 324.605469 239.429688 324.941406 239.578125 325.292969 C 239.722656 325.648438 239.835938 326.011719 239.910156 326.386719 C 239.984375 326.765625 240.023438 327.144531 240.023438 327.527344 C 240.023438 327.910156 239.984375 328.289062 239.910156 328.664062 C 239.835938 329.039062 239.722656 329.40625 239.578125 329.757812 C 239.429688 330.113281 239.25 330.449219 239.039062 330.765625 C 238.824219 331.085938 238.582031 331.378906 238.3125 331.652344 C 238.042969 331.921875 237.746094 332.164062 237.429688 332.375 C 237.109375 332.589844 236.773438 332.769531 236.421875 332.914062 C 236.066406 333.0625 235.703125 333.171875 235.324219 333.246094 C 234.949219 333.324219 234.570312 333.359375 234.1875 333.359375 Z M 234.1875 333.359375 " fill-opacity="1" fill-rule="nonzero"/><path fill="#1472ff" d="M 298.355469 298.355469 C 297.589844 298.355469 296.828125 298.390625 296.066406 298.464844 C 295.304688 298.542969 294.550781 298.652344 293.800781 298.800781 C 293.050781 298.953125 292.3125 299.136719 291.578125 299.359375 C 290.847656 299.582031 290.128906 299.839844 289.421875 300.128906 C 288.714844 300.421875 288.027344 300.75 287.351562 301.109375 C 286.679688 301.46875 286.023438 301.863281 285.386719 302.289062 C 284.753906 302.710938 284.140625 303.167969 283.546875 303.652344 C 282.957031 304.136719 282.390625 304.648438 281.851562 305.191406 C 281.3125 305.730469 280.796875 306.296875 280.3125 306.886719 C 279.828125 307.476562 279.375 308.089844 278.949219 308.726562 C 278.523438 309.363281 278.132812 310.015625 277.769531 310.691406 C 277.410156 311.363281 277.085938 312.054688 276.792969 312.761719 C 276.5 313.46875 276.242188 314.1875 276.019531 314.917969 C 275.796875 315.648438 275.613281 316.390625 275.464844 317.140625 C 275.316406 317.890625 275.203125 318.644531 275.128906 319.40625 C 275.054688 320.164062 275.015625 320.929688 275.015625 321.691406 C 275.015625 322.457031 275.054688 323.21875 275.128906 323.980469 C 275.203125 324.742188 275.316406 325.496094 275.464844 326.246094 C 275.613281 326.996094 275.796875 327.734375 276.019531 328.46875 C 276.242188 329.199219 276.5 329.917969 276.792969 330.625 C 277.085938 331.332031 277.410156 332.019531 277.769531 332.695312 C 278.132812 333.367188 278.523438 334.023438 278.949219 334.660156 C 279.375 335.292969 279.828125 335.90625 280.3125 336.5 C 280.796875 337.089844 281.3125 337.65625 281.851562 338.195312 C 282.390625 338.734375 282.957031 339.25 283.546875 339.734375 C 284.140625 340.21875 284.753906 340.671875 285.386719 341.097656 C 286.023438 341.523438 286.679688 341.914062 287.351562 342.277344 C 288.027344 342.636719 288.714844 342.960938 289.421875 343.253906 C 290.128906 343.546875 290.847656 343.804688 291.578125 344.027344 C 292.3125 344.25 293.050781 344.433594 293.800781 344.582031 C 294.550781 344.730469 295.304688 344.84375 296.066406 344.917969 C 296.828125 344.992188 297.589844 345.03125 298.355469 345.03125 C 299.117188 345.03125 299.882812 344.992188 300.640625 344.917969 C 301.402344 344.84375 302.15625 344.730469 302.90625 344.582031 C 303.65625 344.433594 304.398438 344.25 305.128906 344.027344 C 305.859375 343.804688 306.578125 343.546875 307.285156 343.253906 C 307.992188 342.960938 308.683594 342.636719 309.355469 342.277344 C 310.03125 341.914062 310.683594 341.523438 311.320312 341.097656 C 311.957031 340.671875 312.570312 340.21875 313.160156 339.734375 C 313.75 339.25 314.316406 338.734375 314.855469 338.195312 C 315.398438 337.65625 315.910156 337.089844 316.394531 336.5 C 316.878906 335.90625 317.335938 335.292969 317.757812 334.660156 C 318.183594 334.023438 318.578125 333.367188 318.9375 332.695312 C 319.296875 332.019531 319.625 331.332031 319.917969 330.625 C 320.207031 329.917969 320.464844 329.199219 320.6875 328.46875 C 320.910156 327.734375 321.09375 326.996094 321.246094 326.246094 C 321.394531 325.496094 321.503906 324.742188 321.582031 323.980469 C 321.65625 323.21875 321.691406 322.457031 321.691406 321.691406 C 321.691406 320.929688 321.652344 320.167969 321.578125 319.40625 C 321.503906 318.644531 321.390625 317.890625 321.238281 317.140625 C 321.089844 316.390625 320.90625 315.652344 320.683594 314.921875 C 320.460938 314.1875 320.203125 313.472656 319.910156 312.765625 C 319.617188 312.058594 319.289062 311.371094 318.929688 310.695312 C 318.570312 310.023438 318.175781 309.367188 317.753906 308.730469 C 317.328125 308.097656 316.871094 307.484375 316.386719 306.894531 C 315.902344 306.300781 315.390625 305.738281 314.851562 305.195312 C 314.308594 304.65625 313.742188 304.144531 313.152344 303.660156 C 312.5625 303.175781 311.949219 302.71875 311.316406 302.292969 C 310.679688 301.871094 310.023438 301.476562 309.351562 301.117188 C 308.675781 300.757812 307.988281 300.429688 307.28125 300.136719 C 306.574219 299.84375 305.855469 299.585938 305.125 299.363281 C 304.394531 299.140625 303.65625 298.957031 302.90625 298.804688 C 302.15625 298.65625 301.402344 298.542969 300.640625 298.46875 C 299.878906 298.394531 299.117188 298.355469 298.355469 298.355469 Z M 298.355469 333.359375 C 297.589844 333.359375 296.828125 333.285156 296.078125 333.136719 C 295.328125 332.984375 294.597656 332.765625 293.890625 332.472656 C 293.179688 332.179688 292.507812 331.820312 291.871094 331.394531 C 291.234375 330.96875 290.644531 330.484375 290.105469 329.941406 C 289.5625 329.402344 289.078125 328.8125 288.652344 328.175781 C 288.226562 327.539062 287.867188 326.867188 287.574219 326.15625 C 287.28125 325.449219 287.058594 324.71875 286.910156 323.96875 C 286.761719 323.21875 286.6875 322.457031 286.6875 321.691406 C 286.6875 320.925781 286.761719 320.167969 286.910156 319.417969 C 287.058594 318.664062 287.28125 317.933594 287.574219 317.226562 C 287.867188 316.519531 288.226562 315.847656 288.652344 315.210938 C 289.078125 314.574219 289.5625 313.984375 290.105469 313.441406 C 290.644531 312.902344 291.234375 312.417969 291.871094 311.992188 C 292.507812 311.566406 293.179688 311.207031 293.890625 310.914062 C 294.597656 310.621094 295.328125 310.398438 296.078125 310.25 C 296.828125 310.101562 297.589844 310.023438 298.355469 310.023438 C 299.121094 310.023438 299.878906 310.101562 300.628906 310.25 C 301.382812 310.398438 302.109375 310.621094 302.820312 310.914062 C 303.527344 311.207031 304.199219 311.566406 304.835938 311.992188 C 305.472656 312.417969 306.0625 312.902344 306.605469 313.441406 C 307.144531 313.984375 307.628906 314.574219 308.054688 315.210938 C 308.480469 315.847656 308.839844 316.519531 309.132812 317.226562 C 309.425781 317.933594 309.648438 318.664062 309.796875 319.417969 C 309.945312 320.167969 310.019531 320.925781 310.019531 321.691406 C 310.019531 322.457031 309.945312 323.21875 309.796875 323.96875 C 309.644531 324.71875 309.421875 325.449219 309.128906 326.15625 C 308.835938 326.863281 308.476562 327.535156 308.050781 328.171875 C 307.625 328.808594 307.140625 329.398438 306.601562 329.9375 C 306.058594 330.480469 305.46875 330.964844 304.832031 331.390625 C 304.195312 331.816406 303.523438 332.175781 302.816406 332.46875 C 302.109375 332.761719 301.378906 332.984375 300.628906 333.132812 C 299.878906 333.285156 299.121094 333.359375 298.355469 333.359375 Z M 298.355469 333.359375 " fill-opacity="1" fill-rule="nonzero"/></svg>