<svg xmlns="http://www.w3.org/2000/svg" xmlns:xlink="http://www.w3.org/1999/xlink" width="500" zoomAndPan="magnify" viewBox="0 0 375 374.999991" height="500" preserveAspectRatio="xMidYMid meet" version="1.0"><defs><clipPath id="7e4108363f"><path d="M 0 18.75 L 375 18.75 L 375 356.25 L 0 356.25 Z M 0 18.75 " clip-rule="nonzero"/></clipPath></defs><path fill="#1472ff" d="M 263.339844 337.597656 L 273.101562 345.410156 C 275.980469 341.839844 278.574219 338.070312 280.882812 334.105469 C 283.1875 330.140625 285.183594 326.027344 286.863281 321.757812 C 288.546875 317.492188 289.898438 313.121094 290.917969 308.648438 C 291.933594 304.179688 292.609375 299.65625 292.941406 295.078125 C 293.121094 292.613281 293.210938 290.085938 293.210938 287.492188 C 291.882812 255.597656 288.171875 223.984375 282.078125 192.652344 L 269.773438 194.824219 C 275.730469 225.441406 279.378906 256.328125 280.714844 287.488281 C 280.714844 289.769531 280.628906 291.980469 280.472656 294.175781 C 280.1875 298.121094 279.601562 302.023438 278.722656 305.882812 C 277.84375 309.742188 276.675781 313.511719 275.222656 317.195312 C 273.769531 320.875 272.046875 324.425781 270.054688 327.847656 C 268.066406 331.265625 265.824219 334.515625 263.339844 337.597656 Z M 263.339844 337.597656 " fill-opacity="1" fill-rule="nonzero"/><g clip-path="url(#7e4108363f)"><path fill="#1472ff" d="M 368.226562 37.492188 L 336.976562 37.492188 L 336.976562 31.242188 C 336.976562 30.832031 336.9375 30.425781 336.855469 30.023438 C 336.777344 29.617188 336.65625 29.226562 336.5 28.847656 C 336.34375 28.46875 336.152344 28.109375 335.921875 27.765625 C 335.695312 27.425781 335.4375 27.109375 335.144531 26.820312 C 334.855469 26.53125 334.539062 26.269531 334.199219 26.042969 C 333.855469 25.816406 333.496094 25.621094 333.117188 25.464844 C 332.738281 25.308594 332.347656 25.191406 331.945312 25.109375 C 331.542969 25.03125 331.132812 24.988281 330.722656 24.988281 L 293.226562 24.988281 C 292.816406 24.988281 292.410156 25.03125 292.007812 25.109375 C 291.605469 25.191406 291.214844 25.308594 290.835938 25.464844 C 290.453125 25.621094 290.09375 25.816406 289.753906 26.042969 C 289.410156 26.269531 289.097656 26.53125 288.804688 26.820312 C 288.515625 27.109375 288.257812 27.425781 288.027344 27.765625 C 287.800781 28.109375 287.609375 28.46875 287.449219 28.847656 C 287.292969 29.226562 287.175781 29.617188 287.09375 30.023438 C 287.015625 30.425781 286.976562 30.832031 286.976562 31.242188 L 286.976562 74.992188 L 261.972656 74.992188 C 261.972656 74.378906 261.945312 73.765625 261.882812 73.15625 C 261.824219 72.542969 261.734375 71.9375 261.613281 71.335938 C 261.492188 70.734375 261.34375 70.136719 261.167969 69.550781 C 260.988281 68.964844 260.78125 68.386719 260.546875 67.816406 C 260.3125 67.25 260.050781 66.695312 259.757812 66.15625 C 259.46875 65.613281 259.15625 65.085938 258.8125 64.578125 C 258.472656 64.066406 258.105469 63.574219 257.71875 63.097656 C 257.328125 62.625 256.917969 62.167969 256.480469 61.734375 C 256.046875 61.300781 255.59375 60.890625 255.117188 60.5 C 254.644531 60.109375 254.152344 59.746094 253.640625 59.402344 C 253.128906 59.0625 252.605469 58.746094 252.0625 58.457031 C 251.519531 58.167969 250.964844 57.90625 250.398438 57.671875 C 249.832031 57.4375 249.253906 57.230469 248.667969 57.050781 C 248.078125 56.871094 247.484375 56.722656 246.882812 56.605469 C 246.277344 56.484375 245.671875 56.394531 245.0625 56.332031 C 244.449219 56.273438 243.835938 56.242188 243.222656 56.242188 C 241.074219 56.261719 238.988281 56.648438 236.972656 57.390625 L 236.972656 56.242188 C 236.972656 55.628906 236.941406 55.015625 236.882812 54.40625 C 236.820312 53.792969 236.730469 53.1875 236.613281 52.585938 C 236.492188 51.984375 236.34375 51.386719 236.164062 50.800781 C 235.988281 50.210938 235.78125 49.636719 235.542969 49.066406 C 235.308594 48.5 235.046875 47.945312 234.757812 47.40625 C 234.46875 46.863281 234.152344 46.335938 233.8125 45.824219 C 233.472656 45.316406 233.105469 44.824219 232.714844 44.347656 C 232.328125 43.875 231.914062 43.417969 231.480469 42.984375 C 231.046875 42.550781 230.589844 42.136719 230.117188 41.75 C 229.640625 41.359375 229.148438 40.992188 228.640625 40.652344 C 228.128906 40.3125 227.601562 39.996094 227.058594 39.707031 C 226.519531 39.417969 225.964844 39.15625 225.398438 38.921875 C 224.828125 38.683594 224.253906 38.480469 223.664062 38.300781 C 223.078125 38.121094 222.480469 37.972656 221.878906 37.851562 C 221.277344 37.734375 220.671875 37.644531 220.058594 37.582031 C 219.449219 37.523438 218.835938 37.492188 218.222656 37.492188 C 216.070312 37.511719 213.988281 37.894531 211.96875 38.640625 L 211.96875 37.492188 C 211.96875 36.371094 211.863281 35.257812 211.660156 34.152344 C 211.457031 33.046875 211.15625 31.96875 210.757812 30.917969 C 210.359375 29.871094 209.871094 28.863281 209.292969 27.902344 C 208.714844 26.9375 208.054688 26.035156 207.3125 25.191406 C 206.570312 24.347656 205.757812 23.578125 204.878906 22.878906 C 204 22.183594 203.0625 21.570312 202.074219 21.039062 C 201.082031 20.511719 200.050781 20.074219 198.984375 19.730469 C 197.914062 19.386719 196.824219 19.140625 195.707031 18.992188 C 194.59375 18.847656 193.476562 18.800781 192.355469 18.851562 C 191.234375 18.90625 190.125 19.0625 189.03125 19.3125 C 187.9375 19.566406 186.875 19.917969 185.84375 20.359375 C 184.8125 20.804688 183.828125 21.339844 182.894531 21.960938 C 181.957031 22.582031 181.085938 23.28125 180.277344 24.0625 C 179.46875 24.839844 178.734375 25.683594 178.078125 26.59375 C 177.417969 27.503906 176.847656 28.46875 176.363281 29.480469 C 175.878906 30.496094 175.492188 31.542969 175.195312 32.625 C 174.488281 32.339844 173.765625 32.09375 173.027344 31.894531 C 172.289062 31.695312 171.542969 31.542969 170.785156 31.433594 C 170.027344 31.328125 169.269531 31.265625 168.503906 31.253906 C 167.738281 31.238281 166.976562 31.269531 166.21875 31.351562 C 165.457031 31.429688 164.703125 31.554688 163.960938 31.726562 C 163.214844 31.898438 162.484375 32.113281 161.765625 32.375 C 161.046875 32.636719 160.347656 32.941406 159.667969 33.289062 C 158.984375 33.636719 158.328125 34.023438 157.695312 34.449219 C 157.0625 34.878906 156.457031 35.34375 155.878906 35.84375 C 155.304688 36.347656 154.761719 36.882812 154.25 37.449219 C 153.738281 38.019531 153.265625 38.617188 152.828125 39.246094 C 152.390625 39.871094 151.992188 40.523438 151.636719 41.199219 C 151.277344 41.875 150.964844 42.566406 150.691406 43.28125 C 150.421875 43.996094 150.191406 44.726562 150.007812 45.46875 C 149.828125 46.210938 149.691406 46.960938 149.597656 47.71875 C 149.507812 48.476562 149.464844 49.238281 149.46875 50.003906 L 149.46875 75.003906 L 99.476562 75.003906 L 99.476562 31.242188 C 99.476562 30.832031 99.4375 30.425781 99.355469 30.023438 C 99.277344 29.617188 99.15625 29.226562 99 28.847656 C 98.84375 28.46875 98.652344 28.109375 98.421875 27.765625 C 98.195312 27.425781 97.9375 27.109375 97.644531 26.820312 C 97.355469 26.53125 97.039062 26.269531 96.699219 26.042969 C 96.355469 25.816406 95.996094 25.621094 95.617188 25.464844 C 95.238281 25.308594 94.847656 25.191406 94.445312 25.109375 C 94.039062 25.03125 93.632812 24.988281 93.222656 24.988281 L 55.722656 24.988281 C 55.3125 24.988281 54.90625 25.03125 54.503906 25.109375 C 54.101562 25.191406 53.710938 25.308594 53.332031 25.464844 C 52.949219 25.621094 52.589844 25.816406 52.25 26.042969 C 51.90625 26.269531 51.59375 26.53125 51.300781 26.820312 C 51.011719 27.109375 50.753906 27.425781 50.523438 27.765625 C 50.296875 28.109375 50.101562 28.46875 49.945312 28.847656 C 49.789062 29.226562 49.671875 29.617188 49.589844 30.023438 C 49.511719 30.425781 49.472656 30.832031 49.472656 31.242188 L 49.472656 37.492188 L 18.222656 37.492188 C 17.8125 37.492188 17.40625 37.53125 17.003906 37.613281 C 16.601562 37.691406 16.210938 37.8125 15.832031 37.96875 C 15.453125 38.125 15.09375 38.316406 14.753906 38.542969 C 14.414062 38.773438 14.097656 39.03125 13.808594 39.320312 C 13.515625 39.609375 13.257812 39.925781 13.03125 40.265625 C 12.800781 40.605469 12.609375 40.964844 12.453125 41.34375 C 12.296875 41.722656 12.175781 42.113281 12.097656 42.515625 C 12.015625 42.917969 11.976562 43.324219 11.972656 43.734375 L 11.972656 156.242188 C 11.972656 156.652344 12.015625 157.058594 12.09375 157.460938 C 12.175781 157.863281 12.292969 158.257812 12.449219 158.636719 C 12.609375 159.015625 12.800781 159.375 13.027344 159.714844 C 13.257812 160.058594 13.515625 160.375 13.804688 160.664062 C 14.097656 160.953125 14.410156 161.210938 14.753906 161.441406 C 15.09375 161.667969 15.453125 161.863281 15.832031 162.019531 C 16.210938 162.175781 16.605469 162.292969 17.007812 162.375 C 17.410156 162.453125 17.816406 162.496094 18.226562 162.496094 L 49.476562 162.496094 L 49.476562 168.761719 C 49.476562 169.171875 49.515625 169.578125 49.59375 169.980469 C 49.675781 170.382812 49.792969 170.773438 49.953125 171.152344 C 50.109375 171.53125 50.300781 171.890625 50.527344 172.234375 C 50.757812 172.574219 51.015625 172.890625 51.304688 173.179688 C 51.597656 173.472656 51.914062 173.730469 52.253906 173.957031 C 52.59375 174.1875 52.957031 174.378906 53.335938 174.535156 C 53.714844 174.695312 54.105469 174.8125 54.507812 174.890625 C 54.910156 174.972656 55.316406 175.011719 55.726562 175.011719 L 93.222656 175.011719 C 93.632812 175.011719 94.039062 174.972656 94.445312 174.890625 C 94.847656 174.8125 95.238281 174.695312 95.617188 174.535156 C 95.996094 174.378906 96.355469 174.1875 96.695312 173.957031 C 97.039062 173.730469 97.355469 173.472656 97.644531 173.179688 C 97.933594 172.890625 98.195312 172.574219 98.421875 172.234375 C 98.648438 171.890625 98.84375 171.53125 99 171.152344 C 99.15625 170.773438 99.273438 170.382812 99.355469 169.980469 C 99.433594 169.578125 99.476562 169.171875 99.476562 168.761719 L 99.476562 124.992188 L 120.246094 124.992188 C 120.964844 127.15625 121.875 129.238281 122.972656 131.234375 C 124.070312 133.234375 125.34375 135.117188 126.785156 136.882812 C 128.226562 138.648438 129.816406 140.269531 131.550781 141.746094 C 133.289062 143.222656 135.144531 144.53125 137.121094 145.667969 L 161.972656 159.867188 L 161.972656 235.429688 C 151.964844 231.785156 141.707031 229.085938 131.199219 227.332031 C 120.691406 225.578125 110.109375 224.796875 99.460938 224.992188 C 28.222656 224.992188 1.617188 263.628906 0.523438 265.277344 L 10.910156 272.238281 C 11.875 270.820312 35.292969 237.496094 99.476562 237.496094 C 163.902344 237.496094 188.132812 266.136719 188.34375 266.402344 L 198.105469 258.601562 C 191.367188 251.214844 183.488281 245.363281 174.472656 241.042969 L 174.472656 156.242188 C 174.472656 155.691406 174.40625 155.152344 174.261719 154.621094 C 174.121094 154.089844 173.914062 153.585938 173.640625 153.109375 C 173.363281 152.632812 173.035156 152.199219 172.644531 151.8125 C 172.257812 151.421875 171.824219 151.089844 171.347656 150.816406 L 143.347656 134.808594 C 142.375 134.246094 141.445312 133.621094 140.558594 132.9375 C 139.671875 132.25 138.832031 131.511719 138.042969 130.714844 C 137.253906 129.914062 136.519531 129.070312 135.839844 128.175781 C 135.164062 127.28125 134.550781 126.34375 133.996094 125.367188 C 133.445312 124.390625 132.960938 123.382812 132.542969 122.339844 C 132.121094 121.300781 131.777344 120.234375 131.5 119.148438 C 131.222656 118.0625 131.019531 116.960938 130.886719 115.84375 C 130.757812 114.730469 130.703125 113.613281 130.722656 112.492188 C 130.726562 111.117188 130.84375 109.757812 131.074219 108.402344 C 131.300781 107.050781 131.640625 105.726562 132.089844 104.425781 C 132.535156 103.128906 133.085938 101.878906 133.742188 100.671875 C 134.394531 99.464844 135.144531 98.320312 135.984375 97.238281 C 136.828125 96.152344 137.753906 95.148438 138.761719 94.214844 C 139.769531 93.285156 140.847656 92.441406 141.992188 91.6875 C 143.140625 90.933594 144.339844 90.28125 145.597656 89.726562 C 146.851562 89.167969 148.144531 88.71875 149.472656 88.375 L 149.472656 106.246094 L 161.972656 106.246094 L 161.972656 49.992188 C 161.964844 49.574219 161.996094 49.160156 162.066406 48.75 C 162.140625 48.339844 162.253906 47.941406 162.40625 47.554688 C 162.558594 47.164062 162.746094 46.796875 162.972656 46.445312 C 163.199219 46.09375 163.457031 45.769531 163.75 45.472656 C 164.039062 45.175781 164.359375 44.90625 164.703125 44.671875 C 165.046875 44.4375 165.410156 44.238281 165.796875 44.078125 C 166.179688 43.917969 166.578125 43.792969 166.984375 43.710938 C 167.394531 43.628906 167.808594 43.585938 168.222656 43.585938 C 168.640625 43.585938 169.054688 43.628906 169.460938 43.710938 C 169.871094 43.792969 170.265625 43.917969 170.652344 44.078125 C 171.035156 44.238281 171.398438 44.4375 171.746094 44.671875 C 172.089844 44.90625 172.40625 45.175781 172.699219 45.472656 C 172.988281 45.769531 173.246094 46.09375 173.472656 46.445312 C 173.699219 46.796875 173.890625 47.164062 174.042969 47.554688 C 174.195312 47.941406 174.308594 48.339844 174.378906 48.75 C 174.453125 49.160156 174.484375 49.574219 174.472656 49.992188 L 174.472656 68.742188 L 186.972656 68.742188 L 186.972656 37.492188 C 186.960938 37.074219 186.992188 36.664062 187.066406 36.25 C 187.136719 35.839844 187.25 35.441406 187.402344 35.054688 C 187.554688 34.667969 187.746094 34.296875 187.972656 33.945312 C 188.199219 33.597656 188.457031 33.273438 188.746094 32.972656 C 189.039062 32.675781 189.355469 32.410156 189.699219 32.175781 C 190.046875 31.9375 190.410156 31.742188 190.792969 31.578125 C 191.179688 31.417969 191.574219 31.296875 191.984375 31.210938 C 192.390625 31.128906 192.804688 31.089844 193.222656 31.089844 C 193.636719 31.089844 194.050781 31.128906 194.460938 31.210938 C 194.867188 31.296875 195.265625 31.417969 195.648438 31.578125 C 196.035156 31.742188 196.398438 31.9375 196.742188 32.175781 C 197.085938 32.410156 197.40625 32.675781 197.695312 32.972656 C 197.988281 33.273438 198.246094 33.597656 198.472656 33.945312 C 198.699219 34.296875 198.886719 34.667969 199.039062 35.054688 C 199.191406 35.441406 199.304688 35.839844 199.378906 36.25 C 199.449219 36.664062 199.480469 37.074219 199.472656 37.492188 L 199.472656 74.992188 L 211.96875 74.992188 L 211.96875 56.242188 C 211.960938 55.828125 211.992188 55.414062 212.0625 55.003906 C 212.136719 54.59375 212.25 54.191406 212.402344 53.804688 C 212.554688 53.417969 212.742188 53.046875 212.96875 52.695312 C 213.195312 52.347656 213.453125 52.023438 213.746094 51.722656 C 214.035156 51.425781 214.355469 51.160156 214.699219 50.925781 C 215.042969 50.691406 215.40625 50.492188 215.792969 50.328125 C 216.175781 50.167969 216.574219 50.046875 216.980469 49.960938 C 217.390625 49.878906 217.804688 49.839844 218.21875 49.839844 C 218.636719 49.839844 219.050781 49.878906 219.457031 49.960938 C 219.867188 50.046875 220.261719 50.167969 220.648438 50.328125 C 221.03125 50.492188 221.394531 50.691406 221.742188 50.925781 C 222.085938 51.160156 222.402344 51.425781 222.695312 51.722656 C 222.984375 52.023438 223.242188 52.347656 223.46875 52.695312 C 223.695312 53.046875 223.886719 53.417969 224.039062 53.804688 C 224.191406 54.191406 224.304688 54.59375 224.375 55.003906 C 224.449219 55.414062 224.480469 55.828125 224.46875 56.242188 L 224.46875 81.246094 L 236.96875 81.246094 L 236.96875 74.992188 C 236.957031 74.578125 236.988281 74.164062 237.0625 73.753906 C 237.132812 73.34375 237.246094 72.941406 237.398438 72.554688 C 237.550781 72.167969 237.742188 71.796875 237.96875 71.449219 C 238.195312 71.097656 238.453125 70.773438 238.742188 70.476562 C 239.035156 70.175781 239.351562 69.910156 239.695312 69.675781 C 240.042969 69.441406 240.40625 69.242188 240.789062 69.078125 C 241.175781 68.917969 241.570312 68.796875 241.980469 68.714844 C 242.386719 68.628906 242.800781 68.589844 243.21875 68.589844 C 243.632812 68.589844 244.046875 68.628906 244.457031 68.714844 C 244.863281 68.796875 245.261719 68.917969 245.644531 69.078125 C 246.03125 69.242188 246.394531 69.441406 246.738281 69.675781 C 247.082031 69.910156 247.402344 70.175781 247.691406 70.476562 C 247.984375 70.773438 248.242188 71.097656 248.46875 71.449219 C 248.695312 71.796875 248.882812 72.167969 249.035156 72.554688 C 249.1875 72.941406 249.300781 73.34375 249.375 73.753906 C 249.445312 74.164062 249.476562 74.578125 249.46875 74.992188 L 249.46875 129.765625 L 237.59375 153.445312 C 236.933594 154.757812 236.761719 156.128906 237.074219 157.5625 C 237.289062 158.4375 255.714844 244.921875 255.714844 287.511719 C 255.714844 289.179688 255.65625 290.804688 255.542969 292.394531 C 255.375 294.152344 255.125 295.898438 254.792969 297.632812 C 254.460938 299.363281 254.050781 301.078125 253.558594 302.773438 C 253.070312 304.46875 252.5 306.136719 251.855469 307.78125 C 251.207031 309.421875 250.484375 311.03125 249.6875 312.605469 C 248.890625 314.179688 248.023438 315.714844 247.085938 317.207031 C 246.144531 318.703125 245.136719 320.148438 244.0625 321.550781 C 242.988281 322.949219 241.851562 324.296875 240.648438 325.589844 C 239.449219 326.882812 238.191406 328.117188 236.875 329.296875 C 235.5625 330.472656 234.195312 331.585938 232.773438 332.632812 C 231.355469 333.683594 229.890625 334.664062 228.378906 335.574219 C 226.867188 336.488281 225.320312 337.328125 223.730469 338.097656 C 222.140625 338.863281 220.519531 339.554688 218.867188 340.171875 C 217.210938 340.789062 215.535156 341.328125 213.828125 341.789062 C 212.125 342.246094 210.40625 342.628906 208.664062 342.925781 C 206.925781 343.226562 205.175781 343.445312 203.417969 343.582031 C 201.65625 343.71875 199.894531 343.769531 198.132812 343.742188 L 5.722656 343.742188 L 5.722656 356.242188 L 198.132812 356.242188 C 200.285156 356.269531 202.4375 356.195312 204.585938 356.023438 C 206.734375 355.847656 208.871094 355.574219 210.992188 355.203125 C 213.117188 354.828125 215.21875 354.359375 217.296875 353.789062 C 219.375 353.21875 221.425781 352.554688 223.441406 351.796875 C 225.457031 351.035156 227.433594 350.183594 229.371094 349.238281 C 231.308594 348.292969 233.199219 347.261719 235.039062 346.140625 C 236.882812 345.019531 238.667969 343.816406 240.394531 342.527344 C 242.125 341.242188 243.789062 339.875 245.390625 338.433594 C 246.992188 336.988281 248.523438 335.476562 249.984375 333.890625 C 251.441406 332.304688 252.828125 330.652344 254.132812 328.9375 C 255.4375 327.226562 256.664062 325.453125 257.804688 323.625 C 258.945312 321.796875 259.996094 319.917969 260.960938 317.992188 C 261.929688 316.0625 262.800781 314.09375 263.585938 312.085938 C 264.367188 310.078125 265.054688 308.039062 265.644531 305.964844 C 266.234375 303.890625 266.730469 301.796875 267.125 299.675781 C 267.523438 297.558594 267.820312 295.425781 268.015625 293.28125 C 268.152344 291.398438 268.222656 289.472656 268.222656 287.492188 C 268.222656 246.894531 252.734375 171.125 249.789062 157.085938 L 261.34375 134.035156 C 261.769531 133.152344 261.980469 132.222656 261.96875 131.242188 L 261.96875 124.988281 L 286.972656 124.988281 L 286.972656 168.761719 C 286.972656 169.171875 287.011719 169.578125 287.09375 169.980469 C 287.171875 170.382812 287.289062 170.773438 287.449219 171.152344 C 287.605469 171.53125 287.796875 171.890625 288.027344 172.234375 C 288.253906 172.574219 288.511719 172.890625 288.804688 173.179688 C 289.09375 173.472656 289.410156 173.730469 289.75 173.957031 C 290.089844 174.1875 290.453125 174.378906 290.832031 174.535156 C 291.210938 174.695312 291.601562 174.8125 292.003906 174.890625 C 292.40625 174.972656 292.8125 175.011719 293.222656 175.011719 L 330.726562 175.011719 C 331.136719 175.011719 331.542969 174.972656 331.949219 174.890625 C 332.351562 174.8125 332.742188 174.695312 333.121094 174.535156 C 333.5 174.378906 333.859375 174.1875 334.199219 173.957031 C 334.542969 173.730469 334.859375 173.472656 335.148438 173.179688 C 335.4375 172.890625 335.699219 172.574219 335.925781 172.234375 C 336.152344 171.890625 336.347656 171.53125 336.503906 171.152344 C 336.660156 170.773438 336.777344 170.382812 336.859375 169.980469 C 336.9375 169.578125 336.980469 169.171875 336.980469 168.761719 L 336.980469 162.507812 L 368.230469 162.507812 C 368.640625 162.507812 369.046875 162.46875 369.449219 162.390625 C 369.851562 162.308594 370.242188 162.191406 370.621094 162.035156 C 371 161.875 371.359375 161.683594 371.703125 161.457031 C 372.042969 161.226562 372.359375 160.96875 372.648438 160.679688 C 372.9375 160.386719 373.199219 160.074219 373.425781 159.730469 C 373.65625 159.390625 373.847656 159.03125 374.003906 158.648438 C 374.160156 158.269531 374.28125 157.878906 374.359375 157.476562 C 374.441406 157.074219 374.480469 156.667969 374.480469 156.257812 L 374.480469 43.734375 C 374.480469 43.324219 374.4375 42.917969 374.359375 42.515625 C 374.277344 42.113281 374.160156 41.722656 374 41.34375 C 373.84375 40.964844 373.652344 40.605469 373.421875 40.261719 C 373.195312 39.921875 372.933594 39.605469 372.644531 39.316406 C 372.355469 39.027344 372.039062 38.769531 371.695312 38.542969 C 371.355469 38.3125 370.996094 38.121094 370.617188 37.964844 C 370.238281 37.808594 369.847656 37.691406 369.445312 37.613281 C 369.042969 37.53125 368.636719 37.492188 368.226562 37.492188 Z M 24.480469 149.996094 L 24.480469 131.246094 L 36.972656 131.246094 L 36.972656 118.742188 L 24.480469 118.742188 L 24.480469 106.246094 L 36.972656 106.246094 L 36.972656 93.746094 L 24.480469 93.746094 L 24.480469 81.246094 L 36.972656 81.246094 L 36.972656 68.742188 L 24.480469 68.742188 L 24.480469 49.992188 L 49.484375 49.992188 L 49.484375 149.996094 Z M 86.996094 162.496094 L 61.972656 162.496094 L 61.972656 37.492188 L 86.976562 37.492188 Z M 99.476562 87.492188 L 127.925781 87.492188 C 126.402344 89.203125 125.042969 91.03125 123.847656 92.984375 C 122.65625 94.9375 121.644531 96.980469 120.816406 99.117188 C 119.992188 101.25 119.363281 103.441406 118.929688 105.691406 C 118.496094 107.9375 118.265625 110.207031 118.242188 112.496094 L 99.476562 112.496094 Z M 261.976562 112.496094 L 261.976562 87.492188 L 286.980469 87.492188 L 286.980469 112.496094 Z M 324.492188 162.496094 L 299.476562 162.496094 L 299.476562 37.492188 L 324.476562 37.492188 Z M 336.992188 149.996094 L 336.992188 49.992188 L 361.992188 49.992188 L 361.992188 68.742188 L 349.472656 68.742188 L 349.472656 81.242188 L 361.972656 81.242188 L 361.972656 93.746094 L 349.472656 93.746094 L 349.472656 106.246094 L 361.972656 106.246094 L 361.972656 118.746094 L 349.472656 118.746094 L 349.472656 131.246094 L 361.972656 131.246094 L 361.972656 149.996094 Z M 336.992188 149.996094 " fill-opacity="1" fill-rule="nonzero"/></g><path fill="#1472ff" d="M 158.761719 276.949219 L 165.191406 266.242188 C 160.199219 263.449219 155.046875 261.003906 149.726562 258.902344 C 144.410156 256.804688 138.976562 255.066406 133.425781 253.695312 C 127.875 252.324219 122.257812 251.328125 116.574219 250.707031 C 110.890625 250.089844 105.191406 249.851562 99.476562 249.996094 C 85.984375 249.882812 72.824219 251.910156 59.996094 256.078125 L 63.953125 267.953125 C 75.5 264.210938 87.339844 262.394531 99.476562 262.503906 C 104.628906 262.339844 109.769531 262.523438 114.898438 263.054688 C 120.027344 263.585938 125.09375 264.460938 130.105469 265.683594 C 135.113281 266.902344 140.019531 268.457031 144.816406 270.34375 C 149.613281 272.230469 154.261719 274.433594 158.761719 276.949219 Z M 158.761719 276.949219 " fill-opacity="1" fill-rule="nonzero"/><path fill="#1472ff" d="M 46.695312 261.550781 C 42.019531 263.867188 37.5625 266.546875 33.324219 269.585938 L 40.613281 279.734375 C 44.304688 277.089844 48.183594 274.757812 52.253906 272.738281 Z M 46.695312 261.550781 " fill-opacity="1" fill-rule="nonzero"/></svg>