<svg xmlns="http://www.w3.org/2000/svg" xmlns:xlink="http://www.w3.org/1999/xlink" width="500" zoomAndPan="magnify" viewBox="0 0 375 374.999991" height="500" preserveAspectRatio="xMidYMid meet" version="1.0"><path fill="#1472ff" d="M 202.148438 287.109375 C 201.667969 287.109375 201.191406 287.15625 200.71875 287.25 C 200.25 287.34375 199.789062 287.484375 199.347656 287.667969 C 198.902344 287.851562 198.480469 288.078125 198.078125 288.34375 C 197.679688 288.613281 197.308594 288.914062 196.96875 289.253906 C 196.628906 289.597656 196.324219 289.964844 196.058594 290.367188 C 195.792969 290.765625 195.566406 291.1875 195.382812 291.632812 C 195.199219 292.078125 195.058594 292.535156 194.964844 293.007812 C 194.871094 293.476562 194.824219 293.953125 194.824219 294.433594 C 194.824219 294.914062 194.871094 295.390625 194.964844 295.863281 C 195.058594 296.335938 195.199219 296.792969 195.382812 297.238281 C 195.566406 297.683594 195.792969 298.105469 196.058594 298.503906 C 196.324219 298.902344 196.628906 299.273438 196.96875 299.613281 C 197.308594 299.953125 197.679688 300.257812 198.078125 300.523438 C 198.480469 300.792969 198.902344 301.019531 199.347656 301.203125 C 199.789062 301.386719 200.25 301.523438 200.71875 301.617188 C 201.191406 301.710938 201.667969 301.757812 202.148438 301.757812 C 202.628906 301.757812 203.105469 301.710938 203.578125 301.617188 C 204.050781 301.523438 204.507812 301.386719 204.953125 301.203125 C 205.394531 301.019531 205.816406 300.792969 206.21875 300.523438 C 206.617188 300.257812 206.988281 299.953125 207.328125 299.613281 C 207.667969 299.273438 207.972656 298.902344 208.238281 298.503906 C 208.507812 298.105469 208.730469 297.683594 208.914062 297.238281 C 209.101562 296.792969 209.238281 296.335938 209.332031 295.863281 C 209.425781 295.390625 209.472656 294.914062 209.472656 294.433594 C 209.472656 293.953125 209.425781 293.476562 209.332031 293.007812 C 209.238281 292.535156 209.097656 292.078125 208.914062 291.632812 C 208.730469 291.1875 208.503906 290.765625 208.238281 290.367188 C 207.96875 289.96875 207.667969 289.597656 207.328125 289.257812 C 206.988281 288.917969 206.617188 288.613281 206.21875 288.347656 C 205.816406 288.078125 205.394531 287.851562 204.953125 287.667969 C 204.507812 287.484375 204.050781 287.347656 203.578125 287.25 C 203.105469 287.15625 202.628906 287.109375 202.148438 287.109375 Z M 202.148438 287.109375 " fill-opacity="1" fill-rule="nonzero"/><path fill="#1472ff" d="M 353.027344 331.054688 L 352.707031 331.054688 C 354.386719 329.753906 355.992188 328.367188 357.515625 326.890625 C 359.042969 325.414062 360.484375 323.855469 361.839844 322.21875 C 363.191406 320.582031 364.453125 318.875 365.617188 317.101562 C 366.78125 315.324219 367.84375 313.488281 368.804688 311.59375 C 369.765625 309.699219 370.621094 307.757812 371.363281 305.769531 C 372.109375 303.78125 372.742188 301.757812 373.265625 299.695312 C 373.785156 297.636719 374.191406 295.554688 374.480469 293.453125 C 374.773438 291.347656 374.945312 289.234375 375 287.109375 C 375 285.609375 374.9375 284.109375 374.820312 282.613281 C 374.707031 281.117188 374.53125 279.628906 374.300781 278.144531 C 374.070312 276.660156 373.78125 275.1875 373.4375 273.726562 C 373.09375 272.265625 372.695312 270.820312 372.238281 269.390625 C 371.785156 267.960938 371.277344 266.546875 370.710938 265.15625 C 370.148438 263.765625 369.535156 262.398438 368.867188 261.054688 C 368.199219 259.710938 367.480469 258.390625 366.710938 257.101562 C 365.941406 255.8125 365.125 254.554688 364.257812 253.328125 C 363.394531 252.101562 362.484375 250.910156 361.527344 249.753906 C 360.570312 248.597656 359.570312 247.480469 358.527344 246.398438 C 357.484375 245.320312 356.402344 244.28125 355.28125 243.285156 C 354.160156 242.285156 353 241.335938 351.804688 240.425781 C 350.609375 239.519531 349.382812 238.65625 348.121094 237.84375 C 346.859375 237.027344 345.566406 236.265625 344.25 235.550781 C 342.929688 234.835938 341.582031 234.171875 340.210938 233.558594 C 338.839844 232.945312 337.449219 232.390625 336.035156 231.882812 L 335.941406 231.851562 L 273.335938 210.535156 L 296.359375 92.285156 L 304.679688 92.285156 C 305.878906 92.285156 307.074219 92.222656 308.265625 92.105469 C 309.457031 91.984375 310.640625 91.808594 311.816406 91.574219 C 312.992188 91.335938 314.152344 91.046875 315.296875 90.695312 C 316.441406 90.347656 317.570312 89.941406 318.675781 89.484375 C 319.78125 89.023438 320.863281 88.511719 321.921875 87.945312 C 322.976562 87.378906 324.003906 86.765625 325 86.097656 C 325.996094 85.433594 326.957031 84.71875 327.882812 83.957031 C 328.808594 83.199219 329.695312 82.394531 330.542969 81.546875 C 331.390625 80.699219 332.191406 79.8125 332.953125 78.886719 C 333.714844 77.960938 334.425781 77 335.09375 76.003906 C 335.757812 75.007812 336.375 73.980469 336.941406 72.925781 C 337.507812 71.871094 338.019531 70.789062 338.476562 69.679688 C 338.9375 68.574219 339.339844 67.449219 339.691406 66.300781 C 340.039062 65.15625 340.332031 63.996094 340.566406 62.820312 C 340.800781 61.644531 340.980469 60.460938 341.097656 59.269531 C 341.21875 58.078125 341.277344 56.882812 341.28125 55.683594 L 341.28125 21.996094 C 341.28125 21.273438 341.246094 20.558594 341.175781 19.839844 C 341.105469 19.125 341 18.414062 340.859375 17.707031 C 340.71875 17 340.542969 16.304688 340.335938 15.617188 C 340.125 14.925781 339.882812 14.25 339.609375 13.585938 C 339.332031 12.921875 339.023438 12.269531 338.6875 11.636719 C 338.347656 11 337.976562 10.386719 337.578125 9.785156 C 337.175781 9.1875 336.75 8.609375 336.292969 8.054688 C 335.835938 7.5 335.355469 6.964844 334.84375 6.457031 C 334.335938 5.949219 333.804688 5.464844 333.246094 5.007812 C 332.691406 4.550781 332.113281 4.125 331.515625 3.722656 C 330.917969 3.324219 330.300781 2.953125 329.664062 2.617188 C 329.03125 2.277344 328.382812 1.96875 327.714844 1.695312 C 327.050781 1.417969 326.375 1.175781 325.6875 0.96875 C 324.996094 0.757812 324.300781 0.582031 323.59375 0.441406 C 322.886719 0.300781 322.175781 0.195312 321.460938 0.125 C 320.746094 0.0546875 320.027344 0.0195312 319.308594 0.0195312 C 318.585938 0.0195312 317.871094 0.0546875 317.152344 0.125 C 316.4375 0.195312 315.726562 0.300781 315.019531 0.441406 C 314.316406 0.582031 313.617188 0.757812 312.929688 0.96875 C 312.238281 1.175781 311.5625 1.417969 310.898438 1.695312 C 310.234375 1.96875 309.582031 2.277344 308.949219 2.617188 C 308.3125 2.953125 307.699219 3.324219 307.097656 3.722656 C 306.5 4.125 305.925781 4.550781 305.367188 5.007812 C 304.8125 5.464844 304.277344 5.949219 303.769531 6.457031 C 303.261719 6.964844 302.777344 7.5 302.320312 8.054688 C 301.863281 8.609375 301.4375 9.1875 301.035156 9.785156 C 300.636719 10.386719 300.269531 11 299.929688 11.636719 C 299.589844 12.269531 299.28125 12.921875 299.007812 13.585938 C 298.730469 14.25 298.488281 14.925781 298.28125 15.617188 C 298.070312 16.304688 297.898438 17 297.757812 17.707031 C 297.617188 18.414062 297.511719 19.125 297.441406 19.839844 C 297.371094 20.558594 297.332031 21.273438 297.332031 21.996094 L 297.332031 48.359375 L 260.730469 48.359375 C 259.480469 48.359375 258.238281 48.464844 257.003906 48.679688 C 255.769531 48.890625 254.5625 49.207031 253.382812 49.625 C 252.203125 50.042969 251.070312 50.558594 249.976562 51.171875 C 248.886719 51.785156 247.855469 52.484375 246.882812 53.273438 C 245.910156 54.0625 245.015625 54.929688 244.191406 55.871094 C 243.367188 56.8125 242.628906 57.820312 241.976562 58.886719 C 241.324219 59.957031 240.769531 61.074219 240.308594 62.238281 C 239.847656 63.402344 239.488281 64.59375 239.234375 65.820312 C 238.976562 67.046875 238.828125 68.285156 238.78125 69.535156 C 238.738281 70.785156 238.796875 72.03125 238.964844 73.273438 C 239.132812 74.511719 239.40625 75.730469 239.785156 76.921875 C 240.160156 78.117188 240.632812 79.269531 241.207031 80.382812 C 241.78125 81.496094 242.445312 82.550781 243.199219 83.550781 C 243.953125 84.550781 244.785156 85.476562 245.699219 86.332031 C 246.613281 87.191406 247.589844 87.964844 248.636719 88.652344 C 249.679688 89.339844 250.777344 89.9375 251.921875 90.4375 L 231.371094 196.246094 L 127.066406 160.734375 C 120.914062 158.554688 114.609375 157.027344 108.140625 156.15625 L 95.308594 106.933594 L 119.332031 106.933594 C 120.175781 106.933594 121.015625 106.894531 121.855469 106.816406 C 122.691406 106.734375 123.523438 106.617188 124.351562 106.460938 C 125.179688 106.304688 125.996094 106.109375 126.804688 105.878906 C 127.613281 105.644531 128.410156 105.375 129.195312 105.070312 C 129.980469 104.761719 130.746094 104.421875 131.5 104.042969 C 132.25 103.664062 132.984375 103.25 133.699219 102.804688 C 134.410156 102.359375 135.101562 101.878906 135.773438 101.371094 C 136.441406 100.859375 137.085938 100.320312 137.707031 99.75 C 138.324219 99.175781 138.914062 98.578125 139.480469 97.953125 C 140.042969 97.328125 140.574219 96.679688 141.078125 96.003906 C 141.582031 95.328125 142.050781 94.632812 142.488281 93.914062 C 142.925781 93.195312 143.332031 92.457031 143.699219 91.699219 C 144.070312 90.941406 144.402344 90.171875 144.703125 89.382812 C 145 88.597656 145.257812 87.796875 145.484375 86.984375 C 145.707031 86.171875 145.890625 85.351562 146.039062 84.523438 C 146.183594 83.695312 146.292969 82.863281 146.363281 82.023438 C 146.433594 81.183594 146.460938 80.34375 146.453125 79.5 C 146.445312 78.660156 146.398438 77.820312 146.3125 76.984375 C 146.222656 76.144531 146.097656 75.3125 145.933594 74.488281 C 145.769531 73.664062 145.566406 72.847656 145.328125 72.039062 C 145.085938 71.234375 144.8125 70.4375 144.496094 69.65625 C 144.183594 68.875 143.832031 68.113281 143.449219 67.363281 C 143.0625 66.613281 142.644531 65.886719 142.191406 65.175781 C 141.738281 64.464844 141.253906 63.777344 140.738281 63.113281 C 140.21875 62.449219 139.671875 61.8125 139.097656 61.199219 C 138.519531 60.582031 137.917969 60 137.285156 59.441406 C 136.65625 58.882812 136 58.355469 135.320312 57.859375 C 134.640625 57.363281 133.941406 56.898438 133.21875 56.46875 C 132.496094 56.035156 131.753906 55.640625 130.992188 55.277344 C 130.234375 54.914062 129.457031 54.585938 128.667969 54.296875 C 127.878906 54.007812 127.074219 53.753906 126.261719 53.539062 C 125.449219 53.324219 124.625 53.144531 123.796875 53.003906 C 34.523438 38.285156 39.191406 38.53125 34.140625 38.53125 C 33.019531 38.53125 31.902344 38.589844 30.789062 38.699219 C 29.671875 38.8125 28.566406 38.976562 27.46875 39.195312 C 26.371094 39.417969 25.285156 39.6875 24.214844 40.015625 C 23.144531 40.339844 22.089844 40.71875 21.058594 41.148438 C 20.023438 41.578125 19.011719 42.058594 18.023438 42.585938 C 17.039062 43.117188 16.078125 43.691406 15.148438 44.316406 C 14.21875 44.9375 13.320312 45.605469 12.457031 46.316406 C 11.589844 47.027344 10.761719 47.78125 9.972656 48.574219 C 9.179688 49.367188 8.429688 50.195312 7.71875 51.0625 C 7.011719 51.929688 6.34375 52.828125 5.722656 53.757812 C 5.101562 54.691406 4.527344 55.652344 4 56.640625 C 3.472656 57.628906 2.996094 58.640625 2.570312 59.675781 C 2.140625 60.710938 1.765625 61.761719 1.441406 62.835938 C 1.117188 63.90625 0.847656 64.992188 0.628906 66.089844 C 0.414062 67.1875 0.25 68.296875 0.140625 69.410156 C 0.03125 70.523438 -0.0234375 71.640625 -0.0195312 72.761719 C -0.0195312 73.882812 0.0351562 75 0.144531 76.113281 C 0.257812 77.226562 0.421875 78.335938 0.640625 79.433594 C 0.859375 80.53125 1.132812 81.617188 1.460938 82.6875 C 1.785156 83.757812 2.164062 84.8125 2.59375 85.847656 C 3.019531 86.878906 3.5 87.890625 4.027344 88.878906 C 4.558594 89.867188 5.132812 90.824219 5.757812 91.753906 C 6.378906 92.6875 7.046875 93.582031 7.757812 94.449219 C 8.46875 95.3125 9.21875 96.140625 10.011719 96.933594 C 10.804688 97.726562 11.632812 98.476562 12.5 99.1875 C 13.367188 99.894531 14.265625 100.5625 15.195312 101.183594 C 16.128906 101.804688 17.089844 102.378906 18.078125 102.90625 C 19.0625 103.433594 20.074219 103.910156 21.109375 104.339844 C 22.144531 104.765625 23.199219 105.144531 24.269531 105.46875 C 25.34375 105.792969 26.429688 106.0625 27.527344 106.28125 C 28.625 106.5 29.730469 106.664062 30.847656 106.773438 C 31.960938 106.882812 33.078125 106.933594 34.199219 106.933594 L 49.757812 106.933594 L 63.769531 160.589844 C 61.667969 161.324219 59.597656 162.132812 57.554688 163.015625 C 55.511719 163.894531 53.5 164.847656 51.523438 165.867188 C 49.546875 166.890625 47.609375 167.980469 45.707031 169.136719 C 43.808594 170.296875 41.949219 171.519531 40.136719 172.804688 C 38.320312 174.09375 36.554688 175.445312 34.832031 176.855469 C 33.113281 178.265625 31.445312 179.738281 29.828125 181.265625 C 28.210938 182.796875 26.648438 184.378906 25.140625 186.015625 C 23.636719 187.65625 22.1875 189.34375 20.800781 191.082031 C 19.414062 192.824219 18.089844 194.609375 16.824219 196.441406 C 15.5625 198.273438 14.367188 200.148438 13.234375 202.066406 C 12.105469 203.980469 11.042969 205.933594 10.046875 207.925781 C 9.050781 209.917969 8.128906 211.941406 7.277344 213.996094 C 6.425781 216.050781 5.644531 218.132812 4.9375 220.242188 C 4.230469 222.355469 3.601562 224.488281 3.042969 226.640625 C 2.488281 228.796875 2.003906 230.96875 1.601562 233.15625 C 1.195312 235.34375 0.867188 237.542969 0.617188 239.753906 C 0.367188 241.964844 0.195312 244.183594 0.0976562 246.40625 C 0.00390625 248.628906 -0.0117188 250.851562 0.046875 253.078125 C 0.109375 255.300781 0.246094 257.523438 0.460938 259.738281 C 0.679688 261.949219 0.972656 264.15625 1.34375 266.351562 C 1.714844 268.542969 2.160156 270.722656 2.683594 272.886719 C 3.207031 275.046875 3.804688 277.191406 4.480469 279.3125 C 5.152344 281.433594 5.898438 283.527344 6.722656 285.59375 C 7.542969 287.664062 8.433594 289.703125 9.394531 291.707031 C 10.359375 293.714844 11.390625 295.683594 12.492188 297.617188 C 13.59375 299.550781 14.761719 301.445312 15.996094 303.296875 C 17.230469 305.148438 18.527344 306.953125 19.886719 308.714844 C 21.246094 310.476562 22.667969 312.1875 24.148438 313.847656 C 25.628906 315.507812 27.167969 317.117188 28.757812 318.671875 C 30.351562 320.222656 32 321.71875 33.695312 323.160156 C 35.394531 324.597656 37.140625 325.972656 38.933594 327.289062 C 40.730469 328.605469 42.566406 329.859375 44.449219 331.042969 L 21.988281 331.042969 C 21.269531 331.042969 20.550781 331.078125 19.835938 331.152344 C 19.121094 331.222656 18.410156 331.328125 17.703125 331.46875 C 16.996094 331.605469 16.300781 331.78125 15.613281 331.992188 C 14.921875 332.199219 14.246094 332.441406 13.582031 332.71875 C 12.917969 332.992188 12.265625 333.300781 11.632812 333.640625 C 10.996094 333.980469 10.378906 334.347656 9.78125 334.746094 C 9.183594 335.148438 8.605469 335.574219 8.050781 336.03125 C 7.492188 336.488281 6.960938 336.972656 6.453125 337.480469 C 5.945312 337.988281 5.460938 338.523438 5.003906 339.078125 C 4.546875 339.632812 4.121094 340.210938 3.71875 340.808594 C 3.320312 341.410156 2.949219 342.023438 2.609375 342.660156 C 2.273438 343.292969 1.964844 343.945312 1.6875 344.609375 C 1.414062 345.273438 1.171875 345.949219 0.960938 346.640625 C 0.753906 347.328125 0.578125 348.027344 0.4375 348.730469 C 0.296875 349.4375 0.191406 350.148438 0.121094 350.863281 C 0.0507812 351.582031 0.015625 352.296875 0.015625 353.019531 C 0.015625 353.738281 0.0507812 354.457031 0.121094 355.171875 C 0.191406 355.886719 0.296875 356.597656 0.4375 357.304688 C 0.578125 358.011719 0.753906 358.707031 0.960938 359.398438 C 1.171875 360.085938 1.414062 360.761719 1.6875 361.425781 C 1.964844 362.09375 2.273438 362.742188 2.609375 363.375 C 2.949219 364.011719 3.320312 364.628906 3.71875 365.226562 C 4.121094 365.824219 4.546875 366.402344 5.003906 366.957031 C 5.460938 367.515625 5.945312 368.046875 6.453125 368.554688 C 6.960938 369.066406 7.492188 369.546875 8.050781 370.003906 C 8.605469 370.460938 9.183594 370.886719 9.78125 371.289062 C 10.378906 371.6875 10.996094 372.058594 11.632812 372.398438 C 12.265625 372.734375 12.917969 373.042969 13.582031 373.320312 C 14.246094 373.59375 14.921875 373.835938 15.613281 374.046875 C 16.300781 374.253906 16.996094 374.429688 17.703125 374.570312 C 18.410156 374.710938 19.121094 374.816406 19.835938 374.886719 C 20.550781 374.957031 21.269531 374.992188 21.988281 374.992188 L 353.027344 374.992188 C 353.746094 374.992188 354.464844 374.957031 355.179688 374.886719 C 355.898438 374.816406 356.609375 374.710938 357.3125 374.570312 C 358.019531 374.429688 358.714844 374.253906 359.40625 374.046875 C 360.09375 373.835938 360.769531 373.59375 361.433594 373.320312 C 362.101562 373.042969 362.75 372.734375 363.382812 372.398438 C 364.019531 372.058594 364.636719 371.6875 365.234375 371.289062 C 365.832031 370.886719 366.410156 370.460938 366.964844 370.003906 C 367.523438 369.546875 368.054688 369.066406 368.5625 368.554688 C 369.074219 368.046875 369.554688 367.515625 370.011719 366.957031 C 370.46875 366.402344 370.898438 365.824219 371.296875 365.226562 C 371.695312 364.628906 372.066406 364.011719 372.40625 363.375 C 372.746094 362.742188 373.050781 362.09375 373.328125 361.425781 C 373.601562 360.761719 373.84375 360.085938 374.054688 359.398438 C 374.261719 358.707031 374.4375 358.011719 374.578125 357.304688 C 374.71875 356.597656 374.824219 355.886719 374.894531 355.171875 C 374.964844 354.457031 375 353.738281 375 353.019531 C 375 352.296875 374.964844 351.582031 374.894531 350.863281 C 374.824219 350.148438 374.71875 349.4375 374.578125 348.730469 C 374.4375 348.027344 374.261719 347.328125 374.054688 346.640625 C 373.84375 345.949219 373.601562 345.273438 373.328125 344.609375 C 373.050781 343.945312 372.746094 343.292969 372.40625 342.660156 C 372.066406 342.023438 371.695312 341.410156 371.296875 340.808594 C 370.898438 340.210938 370.46875 339.632812 370.011719 339.078125 C 369.554688 338.523438 369.074219 337.988281 368.5625 337.480469 C 368.054688 336.972656 367.523438 336.488281 366.964844 336.03125 C 366.410156 335.574219 365.832031 335.148438 365.234375 334.746094 C 364.636719 334.347656 364.019531 333.980469 363.382812 333.640625 C 362.75 333.300781 362.101562 332.992188 361.433594 332.71875 C 360.769531 332.441406 360.09375 332.199219 359.40625 331.992188 C 358.714844 331.78125 358.019531 331.605469 357.3125 331.46875 C 356.609375 331.328125 355.898438 331.222656 355.179688 331.152344 C 354.464844 331.078125 353.746094 331.042969 353.027344 331.042969 Z M 260.742188 62.988281 L 304.6875 62.988281 C 305.167969 62.988281 305.644531 62.941406 306.117188 62.847656 C 306.589844 62.753906 307.046875 62.613281 307.492188 62.429688 C 307.933594 62.246094 308.355469 62.019531 308.757812 61.753906 C 309.15625 61.488281 309.527344 61.183594 309.867188 60.84375 C 310.207031 60.503906 310.511719 60.132812 310.777344 59.734375 C 311.042969 59.332031 311.269531 58.910156 311.453125 58.464844 C 311.636719 58.023438 311.777344 57.5625 311.871094 57.09375 C 311.964844 56.621094 312.011719 56.144531 312.011719 55.664062 L 312.011719 21.972656 C 312.011719 21.492188 312.058594 21.015625 312.152344 20.542969 C 312.246094 20.074219 312.386719 19.613281 312.570312 19.171875 C 312.753906 18.726562 312.980469 18.304688 313.246094 17.902344 C 313.511719 17.503906 313.816406 17.132812 314.15625 16.792969 C 314.496094 16.453125 314.867188 16.152344 315.265625 15.882812 C 315.667969 15.617188 316.089844 15.390625 316.535156 15.207031 C 316.976562 15.023438 317.4375 14.882812 317.90625 14.789062 C 318.378906 14.695312 318.855469 14.648438 319.335938 14.648438 C 319.816406 14.648438 320.292969 14.695312 320.765625 14.789062 C 321.238281 14.882812 321.695312 15.023438 322.140625 15.207031 C 322.582031 15.390625 323.003906 15.617188 323.40625 15.882812 C 323.804688 16.152344 324.175781 16.453125 324.515625 16.792969 C 324.855469 17.132812 325.160156 17.503906 325.425781 17.902344 C 325.695312 18.304688 325.917969 18.726562 326.101562 19.171875 C 326.289062 19.613281 326.425781 20.074219 326.519531 20.542969 C 326.613281 21.015625 326.660156 21.492188 326.660156 21.972656 L 326.660156 55.664062 C 326.660156 56.382812 326.625 57.101562 326.554688 57.816406 C 326.480469 58.53125 326.375 59.242188 326.234375 59.949219 C 326.09375 60.652344 325.917969 61.351562 325.710938 62.039062 C 325.5 62.726562 325.257812 63.402344 324.980469 64.070312 C 324.707031 64.734375 324.398438 65.382812 324.058594 66.015625 C 323.71875 66.652344 323.351562 67.265625 322.949219 67.867188 C 322.550781 68.464844 322.121094 69.039062 321.664062 69.597656 C 321.210938 70.152344 320.726562 70.683594 320.21875 71.195312 C 319.710938 71.703125 319.175781 72.183594 318.621094 72.640625 C 318.066406 73.097656 317.488281 73.527344 316.890625 73.925781 C 316.292969 74.324219 315.675781 74.695312 315.039062 75.035156 C 314.40625 75.375 313.757812 75.683594 313.09375 75.957031 C 312.429688 76.234375 311.75 76.476562 311.0625 76.683594 C 310.375 76.894531 309.679688 77.070312 308.972656 77.210938 C 308.265625 77.351562 307.554688 77.457031 306.839844 77.527344 C 306.125 77.601562 305.40625 77.636719 304.6875 77.636719 L 261.046875 77.636719 C 260.816406 77.636719 260.582031 77.613281 260.351562 77.617188 C 259.875 77.59375 259.410156 77.527344 258.949219 77.414062 C 258.488281 77.300781 258.042969 77.144531 257.613281 76.945312 C 257.183594 76.742188 256.777344 76.503906 256.390625 76.226562 C 256.007812 75.945312 255.65625 75.632812 255.332031 75.285156 C 255.011719 74.9375 254.722656 74.5625 254.476562 74.160156 C 254.226562 73.757812 254.015625 73.332031 253.847656 72.890625 C 253.683594 72.445312 253.558594 71.992188 253.480469 71.523438 C 253.402344 71.054688 253.367188 70.585938 253.382812 70.109375 C 253.394531 69.636719 253.453125 69.167969 253.554688 68.707031 C 253.660156 68.242188 253.808594 67.792969 254 67.359375 C 254.191406 66.925781 254.421875 66.515625 254.691406 66.125 C 254.964844 65.738281 255.269531 65.378906 255.609375 65.046875 C 255.949219 64.71875 256.320312 64.425781 256.71875 64.167969 C 257.117188 63.910156 257.535156 63.691406 257.976562 63.515625 C 258.414062 63.339844 258.867188 63.207031 259.335938 63.121094 C 259.800781 63.03125 260.269531 62.988281 260.746094 62.992188 Z M 266.492188 92.285156 L 281.4375 92.285156 L 259.339844 205.773438 L 245.363281 201.011719 Z M 34.199219 92.285156 C 33.558594 92.285156 32.917969 92.253906 32.28125 92.195312 C 31.644531 92.132812 31.011719 92.039062 30.382812 91.914062 C 29.757812 91.789062 29.136719 91.636719 28.523438 91.449219 C 27.910156 91.265625 27.308594 91.050781 26.71875 90.804688 C 26.125 90.5625 25.546875 90.289062 24.984375 89.988281 C 24.417969 89.6875 23.871094 89.359375 23.335938 89.003906 C 22.804688 88.648438 22.289062 88.269531 21.792969 87.863281 C 21.300781 87.457031 20.824219 87.03125 20.371094 86.578125 C 19.917969 86.125 19.488281 85.652344 19.082031 85.15625 C 18.675781 84.664062 18.292969 84.152344 17.9375 83.621094 C 17.582031 83.085938 17.253906 82.539062 16.949219 81.976562 C 16.648438 81.410156 16.375 80.832031 16.128906 80.242188 C 15.882812 79.652344 15.664062 79.050781 15.480469 78.4375 C 15.292969 77.824219 15.136719 77.207031 15.011719 76.578125 C 14.882812 75.949219 14.789062 75.320312 14.726562 74.683594 C 14.664062 74.046875 14.628906 73.40625 14.628906 72.765625 C 14.628906 72.125 14.660156 71.488281 14.71875 70.851562 C 14.78125 70.214844 14.875 69.582031 15 68.953125 C 15.121094 68.324219 15.277344 67.703125 15.460938 67.09375 C 15.648438 66.480469 15.863281 65.878906 16.105469 65.285156 C 16.347656 64.695312 16.621094 64.117188 16.921875 63.550781 C 17.222656 62.984375 17.550781 62.4375 17.90625 61.902344 C 18.261719 61.371094 18.640625 60.855469 19.046875 60.363281 C 19.449219 59.867188 19.878906 59.390625 20.332031 58.9375 C 20.78125 58.484375 21.253906 58.054688 21.75 57.648438 C 22.242188 57.242188 22.757812 56.859375 23.289062 56.503906 C 23.820312 56.144531 24.367188 55.816406 24.929688 55.515625 C 25.496094 55.210938 26.074219 54.9375 26.664062 54.691406 C 27.253906 54.445312 27.855469 54.226562 28.46875 54.042969 C 29.082031 53.855469 29.699219 53.699219 30.328125 53.570312 C 30.953125 53.445312 31.585938 53.351562 32.222656 53.285156 C 32.859375 53.222656 33.5 53.191406 34.140625 53.1875 C 37.132812 53.1875 33.472656 52.902344 121.386719 67.460938 C 122.15625 67.585938 122.902344 67.785156 123.632812 68.050781 C 124.363281 68.320312 125.0625 68.652344 125.730469 69.050781 C 126.398438 69.449219 127.023438 69.90625 127.605469 70.417969 C 128.1875 70.933594 128.71875 71.496094 129.195312 72.113281 C 129.675781 72.726562 130.089844 73.378906 130.445312 74.070312 C 130.800781 74.757812 131.089844 75.476562 131.3125 76.222656 C 131.535156 76.96875 131.6875 77.726562 131.765625 78.5 C 131.847656 79.273438 131.855469 80.046875 131.789062 80.824219 C 131.726562 81.597656 131.589844 82.359375 131.386719 83.109375 C 131.179688 83.859375 130.90625 84.582031 130.5625 85.28125 C 130.222656 85.980469 129.820312 86.640625 129.355469 87.261719 C 128.890625 87.886719 128.371094 88.460938 127.800781 88.988281 C 127.226562 89.515625 126.613281 89.984375 125.953125 90.394531 C 125.292969 90.808594 124.601562 91.15625 123.878906 91.4375 C 123.152344 91.71875 122.410156 91.933594 121.644531 92.078125 C 120.882812 92.222656 120.109375 92.292969 119.332031 92.292969 Z M 92.75 155.3125 C 87.765625 155.4375 82.820312 155.953125 77.914062 156.855469 L 64.878906 106.941406 L 80.152344 106.941406 Z M 14.648438 250.488281 C 14.648438 248.882812 14.695312 247.277344 14.792969 245.675781 C 14.886719 244.074219 15.03125 242.476562 15.222656 240.882812 C 15.414062 239.285156 15.652344 237.699219 15.941406 236.121094 C 16.226562 234.539062 16.558594 232.972656 16.9375 231.410156 C 17.320312 229.851562 17.746094 228.304688 18.21875 226.769531 C 18.691406 225.234375 19.207031 223.714844 19.773438 222.214844 C 20.335938 220.710938 20.941406 219.226562 21.59375 217.757812 C 22.246094 216.289062 22.941406 214.84375 23.679688 213.417969 C 24.417969 211.992188 25.199219 210.589844 26.023438 209.210938 C 26.84375 207.832031 27.707031 206.480469 28.609375 205.152344 C 29.515625 203.824219 30.457031 202.527344 31.4375 201.253906 C 32.417969 199.984375 33.433594 198.742188 34.492188 197.535156 C 35.546875 196.324219 36.636719 195.144531 37.761719 194 C 38.886719 192.855469 40.046875 191.746094 41.238281 190.671875 C 42.429688 189.59375 43.652344 188.554688 44.90625 187.550781 C 46.160156 186.550781 47.441406 185.585938 48.753906 184.660156 C 50.066406 183.734375 51.402344 182.847656 52.765625 182 C 54.132812 181.15625 55.519531 180.351562 56.933594 179.589844 C 58.34375 178.824219 59.78125 178.105469 61.234375 177.425781 C 62.691406 176.75 64.164062 176.117188 65.660156 175.527344 C 67.152344 174.9375 68.660156 174.394531 70.1875 173.894531 C 71.714844 173.398438 73.253906 172.945312 74.804688 172.535156 C 76.359375 172.128906 77.921875 171.769531 79.496094 171.457031 C 81.070312 171.144531 82.65625 170.875 84.246094 170.65625 C 85.835938 170.4375 87.429688 170.265625 89.03125 170.144531 C 90.632812 170.019531 92.234375 169.945312 93.839844 169.917969 C 95.445312 169.890625 97.050781 169.910156 98.65625 169.976562 C 100.257812 170.046875 101.859375 170.164062 103.457031 170.328125 C 105.054688 170.488281 106.644531 170.703125 108.226562 170.960938 C 109.8125 171.21875 111.386719 171.527344 112.953125 171.878906 C 114.519531 172.230469 116.074219 172.632812 117.617188 173.078125 C 119.160156 173.523438 120.6875 174.015625 122.199219 174.550781 L 122.296875 174.585938 L 331.171875 245.707031 C 333.292969 246.46875 335.34375 247.386719 337.324219 248.464844 C 339.304688 249.539062 341.191406 250.757812 342.984375 252.125 C 344.777344 253.488281 346.453125 254.980469 348.019531 256.605469 C 349.582031 258.226562 351.011719 259.957031 352.308594 261.800781 C 353.609375 263.640625 354.757812 265.570312 355.757812 267.589844 C 356.761719 269.609375 357.601562 271.691406 358.285156 273.839844 C 358.964844 275.988281 359.480469 278.171875 359.828125 280.398438 C 360.171875 282.625 360.347656 284.867188 360.351562 287.117188 C 360.351562 310.109375 337.320312 330.320312 312.03125 330.332031 L 84.777344 330.398438 C 82.378906 330.085938 80 329.664062 77.636719 329.132812 C 75.273438 328.605469 72.941406 327.96875 70.636719 327.230469 C 68.332031 326.488281 66.066406 325.648438 63.839844 324.703125 C 61.609375 323.761719 59.425781 322.71875 57.292969 321.578125 C 55.15625 320.4375 53.078125 319.203125 51.054688 317.878906 C 49.03125 316.550781 47.070312 315.132812 45.175781 313.628906 C 43.277344 312.125 41.453125 310.539062 39.699219 308.871094 C 37.945312 307.203125 36.273438 305.460938 34.675781 303.640625 C 33.078125 301.820312 31.566406 299.933594 30.140625 297.980469 C 28.714844 296.023438 27.378906 294.007812 26.132812 291.933594 C 24.890625 289.859375 23.738281 287.730469 22.6875 285.550781 C 21.632812 283.375 20.679688 281.152344 19.828125 278.886719 C 18.972656 276.621094 18.222656 274.324219 17.578125 271.992188 C 16.929688 269.660156 16.390625 267.300781 15.957031 264.921875 C 15.523438 262.539062 15.195312 260.144531 14.976562 257.734375 C 14.757812 255.324219 14.648438 252.90625 14.648438 250.488281 Z M 353.027344 360.351562 L 21.972656 360.351562 C 21.492188 360.351562 21.015625 360.304688 20.542969 360.210938 C 20.074219 360.117188 19.613281 359.976562 19.171875 359.792969 C 18.726562 359.609375 18.304688 359.382812 17.902344 359.117188 C 17.503906 358.847656 17.132812 358.546875 16.792969 358.207031 C 16.453125 357.867188 16.152344 357.496094 15.882812 357.097656 C 15.617188 356.695312 15.390625 356.273438 15.207031 355.828125 C 15.023438 355.386719 14.882812 354.925781 14.789062 354.457031 C 14.695312 353.984375 14.648438 353.507812 14.648438 353.027344 C 14.648438 352.546875 14.695312 352.070312 14.789062 351.597656 C 14.882812 351.125 15.023438 350.667969 15.207031 350.222656 C 15.390625 349.777344 15.617188 349.355469 15.882812 348.957031 C 16.152344 348.558594 16.453125 348.1875 16.792969 347.847656 C 17.132812 347.507812 17.503906 347.203125 17.902344 346.9375 C 18.304688 346.667969 18.726562 346.445312 19.171875 346.257812 C 19.613281 346.074219 20.074219 345.9375 20.542969 345.84375 C 21.015625 345.75 21.492188 345.703125 21.972656 345.703125 L 353.027344 345.703125 C 353.507812 345.703125 353.984375 345.75 354.457031 345.84375 C 354.925781 345.9375 355.386719 346.074219 355.828125 346.257812 C 356.273438 346.445312 356.695312 346.667969 357.097656 346.9375 C 357.496094 347.203125 357.867188 347.507812 358.207031 347.847656 C 358.546875 348.1875 358.847656 348.558594 359.117188 348.957031 C 359.382812 349.355469 359.609375 349.777344 359.792969 350.222656 C 359.976562 350.667969 360.117188 351.125 360.210938 351.597656 C 360.304688 352.070312 360.351562 352.546875 360.351562 353.027344 C 360.351562 353.507812 360.304688 353.984375 360.210938 354.457031 C 360.117188 354.925781 359.976562 355.386719 359.792969 355.828125 C 359.609375 356.273438 359.382812 356.695312 359.117188 357.097656 C 358.847656 357.496094 358.546875 357.867188 358.207031 358.207031 C 357.867188 358.546875 357.496094 358.847656 357.097656 359.117188 C 356.695312 359.382812 356.273438 359.609375 355.828125 359.792969 C 355.386719 359.976562 354.925781 360.117188 354.457031 360.210938 C 353.984375 360.304688 353.507812 360.351562 353.027344 360.351562 Z M 353.027344 360.351562 " fill-opacity="1" fill-rule="nonzero"/><path fill="#1472ff" d="M 275.371094 243.164062 C 274.175781 243.164062 272.976562 243.222656 271.785156 243.339844 C 270.59375 243.457031 269.40625 243.632812 268.230469 243.867188 C 267.054688 244.101562 265.894531 244.390625 264.746094 244.738281 C 263.601562 245.085938 262.472656 245.492188 261.367188 245.949219 C 260.257812 246.410156 259.175781 246.921875 258.117188 247.484375 C 257.0625 248.050781 256.035156 248.667969 255.039062 249.332031 C 254.042969 250 253.078125 250.710938 252.152344 251.472656 C 251.226562 252.230469 250.339844 253.035156 249.492188 253.882812 C 248.644531 254.730469 247.839844 255.617188 247.078125 256.546875 C 246.320312 257.472656 245.605469 258.433594 244.941406 259.429688 C 244.273438 260.425781 243.660156 261.453125 243.09375 262.511719 C 242.527344 263.570312 242.015625 264.652344 241.558594 265.757812 C 241.097656 266.867188 240.695312 267.992188 240.347656 269.140625 C 240 270.289062 239.707031 271.449219 239.472656 272.625 C 239.242188 273.800781 239.066406 274.984375 238.949219 276.179688 C 238.832031 277.371094 238.769531 278.566406 238.769531 279.765625 C 238.769531 280.964844 238.832031 282.160156 238.949219 283.351562 C 239.066406 284.546875 239.242188 285.730469 239.472656 286.90625 C 239.707031 288.082031 240 289.242188 240.347656 290.390625 C 240.695312 291.539062 241.097656 292.664062 241.558594 293.773438 C 242.015625 294.878906 242.527344 295.960938 243.09375 297.019531 C 243.65625 298.078125 244.273438 299.101562 244.941406 300.101562 C 245.605469 301.097656 246.320312 302.058594 247.078125 302.984375 C 247.839844 303.910156 248.644531 304.800781 249.492188 305.644531 C 250.339844 306.496094 251.226562 307.296875 252.152344 308.058594 C 253.078125 308.820312 254.042969 309.53125 255.039062 310.199219 C 256.035156 310.863281 257.0625 311.480469 258.117188 312.046875 C 259.175781 312.609375 260.257812 313.121094 261.367188 313.582031 C 262.472656 314.039062 263.601562 314.441406 264.746094 314.789062 C 265.894531 315.140625 267.054688 315.429688 268.230469 315.664062 C 269.40625 315.898438 270.59375 316.074219 271.785156 316.191406 C 272.976562 316.308594 274.175781 316.367188 275.371094 316.367188 C 276.570312 316.367188 277.765625 316.308594 278.960938 316.191406 C 280.152344 316.074219 281.335938 315.898438 282.511719 315.664062 C 283.6875 315.429688 284.851562 315.140625 285.996094 314.789062 C 287.144531 314.441406 288.273438 314.039062 289.378906 313.582031 C 290.488281 313.121094 291.570312 312.609375 292.625 312.046875 C 293.683594 311.480469 294.710938 310.863281 295.707031 310.199219 C 296.703125 309.53125 297.667969 308.820312 298.59375 308.058594 C 299.519531 307.296875 300.40625 306.496094 301.253906 305.648438 C 302.101562 304.800781 302.90625 303.910156 303.667969 302.984375 C 304.425781 302.058594 305.140625 301.097656 305.804688 300.101562 C 306.472656 299.101562 307.085938 298.078125 307.652344 297.019531 C 308.21875 295.960938 308.730469 294.878906 309.1875 293.773438 C 309.648438 292.664062 310.050781 291.539062 310.398438 290.390625 C 310.746094 289.242188 311.039062 288.082031 311.269531 286.90625 C 311.503906 285.730469 311.679688 284.546875 311.796875 283.351562 C 311.914062 282.160156 311.972656 280.964844 311.972656 279.765625 C 311.972656 278.566406 311.910156 277.371094 311.792969 276.179688 C 311.671875 274.988281 311.496094 273.804688 311.261719 272.628906 C 311.027344 271.453125 310.734375 270.292969 310.382812 269.148438 C 310.035156 268 309.632812 266.875 309.171875 265.769531 C 308.710938 264.660156 308.199219 263.578125 307.632812 262.523438 C 307.070312 261.46875 306.453125 260.441406 305.785156 259.445312 C 305.121094 258.449219 304.40625 257.488281 303.648438 256.5625 C 302.886719 255.636719 302.082031 254.75 301.234375 253.902344 C 300.390625 253.054688 299.503906 252.25 298.574219 251.492188 C 297.648438 250.730469 296.6875 250.015625 295.691406 249.351562 C 294.695312 248.683594 293.671875 248.070312 292.613281 247.503906 C 291.558594 246.9375 290.476562 246.425781 289.371094 245.964844 C 288.261719 245.507812 287.136719 245.101562 285.992188 244.753906 C 284.84375 244.40625 283.683594 244.113281 282.507812 243.878906 C 281.335938 243.640625 280.152344 243.464844 278.957031 243.34375 C 277.765625 243.226562 276.570312 243.164062 275.371094 243.164062 Z M 275.371094 301.757812 C 274.652344 301.757812 273.933594 301.722656 273.21875 301.652344 C 272.503906 301.582031 271.792969 301.476562 271.085938 301.335938 C 270.378906 301.195312 269.683594 301.023438 268.996094 300.8125 C 268.304688 300.605469 267.628906 300.363281 266.964844 300.085938 C 266.300781 299.8125 265.648438 299.503906 265.015625 299.164062 C 264.378906 298.824219 263.765625 298.457031 263.164062 298.054688 C 262.566406 297.65625 261.988281 297.226562 261.433594 296.773438 C 260.878906 296.316406 260.34375 295.832031 259.835938 295.324219 C 259.328125 294.816406 258.84375 294.28125 258.386719 293.726562 C 257.929688 293.167969 257.503906 292.59375 257.101562 291.992188 C 256.703125 291.394531 256.332031 290.78125 255.996094 290.144531 C 255.65625 289.511719 255.347656 288.859375 255.070312 288.195312 C 254.796875 287.53125 254.554688 286.855469 254.34375 286.164062 C 254.136719 285.476562 253.960938 284.777344 253.820312 284.074219 C 253.679688 283.367188 253.574219 282.65625 253.503906 281.941406 C 253.433594 281.222656 253.398438 280.503906 253.398438 279.785156 C 253.398438 279.066406 253.433594 278.347656 253.503906 277.632812 C 253.574219 276.917969 253.679688 276.207031 253.820312 275.5 C 253.960938 274.792969 254.136719 274.097656 254.34375 273.40625 C 254.554688 272.71875 254.796875 272.042969 255.070312 271.378906 C 255.347656 270.710938 255.65625 270.0625 255.996094 269.429688 C 256.332031 268.792969 256.703125 268.175781 257.101562 267.578125 C 257.503906 266.980469 257.929688 266.402344 258.386719 265.847656 C 258.84375 265.289062 259.328125 264.757812 259.835938 264.25 C 260.34375 263.738281 260.875 263.257812 261.433594 262.800781 C 261.988281 262.34375 262.566406 261.914062 263.164062 261.515625 C 263.765625 261.117188 264.378906 260.746094 265.015625 260.40625 C 265.648438 260.066406 266.300781 259.761719 266.964844 259.484375 C 267.628906 259.210938 268.304688 258.96875 268.996094 258.757812 C 269.683594 258.550781 270.378906 258.375 271.085938 258.234375 C 271.792969 258.09375 272.503906 257.988281 273.21875 257.917969 C 273.933594 257.847656 274.652344 257.8125 275.371094 257.8125 C 276.09375 257.8125 276.808594 257.847656 277.527344 257.917969 C 278.242188 257.988281 278.953125 258.09375 279.660156 258.234375 C 280.367188 258.375 281.0625 258.550781 281.75 258.757812 C 282.441406 258.96875 283.117188 259.210938 283.78125 259.484375 C 284.445312 259.761719 285.097656 260.066406 285.730469 260.40625 C 286.367188 260.746094 286.984375 261.117188 287.582031 261.515625 C 288.179688 261.914062 288.757812 262.34375 289.3125 262.800781 C 289.867188 263.257812 290.402344 263.738281 290.910156 264.25 C 291.417969 264.757812 291.902344 265.289062 292.359375 265.847656 C 292.816406 266.402344 293.242188 266.980469 293.644531 267.578125 C 294.042969 268.175781 294.414062 268.792969 294.753906 269.429688 C 295.089844 270.0625 295.398438 270.710938 295.671875 271.378906 C 295.949219 272.042969 296.191406 272.71875 296.402344 273.40625 C 296.609375 274.097656 296.785156 274.792969 296.925781 275.5 C 297.066406 276.207031 297.171875 276.917969 297.242188 277.632812 C 297.3125 278.347656 297.347656 279.066406 297.347656 279.785156 C 297.34375 280.503906 297.308594 281.222656 297.238281 281.9375 C 297.167969 282.65625 297.0625 283.367188 296.921875 284.070312 C 296.777344 284.777344 296.605469 285.472656 296.394531 286.160156 C 296.183594 286.851562 295.941406 287.527344 295.667969 288.191406 C 295.390625 288.855469 295.082031 289.503906 294.746094 290.140625 C 294.40625 290.773438 294.035156 291.390625 293.636719 291.988281 C 293.234375 292.585938 292.808594 293.164062 292.351562 293.71875 C 291.894531 294.273438 291.410156 294.808594 290.902344 295.316406 C 290.394531 295.824219 289.863281 296.308594 289.304688 296.765625 C 288.75 297.21875 288.171875 297.648438 287.574219 298.046875 C 286.976562 298.449219 286.359375 298.816406 285.726562 299.15625 C 285.09375 299.496094 284.441406 299.804688 283.777344 300.082031 C 283.113281 300.355469 282.4375 300.597656 281.75 300.808594 C 281.058594 301.015625 280.363281 301.191406 279.65625 301.332031 C 278.953125 301.472656 278.242188 301.582031 277.527344 301.652344 C 276.808594 301.722656 276.09375 301.757812 275.371094 301.757812 Z M 275.371094 301.757812 " fill-opacity="1" fill-rule="nonzero"/><path fill="#1472ff" d="M 172.855469 287.109375 L 142.195312 287.109375 L 136.28125 281.195312 C 136.921875 280.339844 137.535156 279.464844 138.117188 278.574219 C 138.703125 277.679688 139.257812 276.769531 139.789062 275.839844 C 140.316406 274.914062 140.8125 273.96875 141.28125 273.011719 C 141.75 272.050781 142.191406 271.078125 142.597656 270.09375 C 143.007812 269.105469 143.382812 268.109375 143.726562 267.097656 C 144.074219 266.085938 144.386719 265.066406 144.667969 264.039062 C 144.953125 263.007812 145.203125 261.96875 145.417969 260.925781 C 145.636719 259.878906 145.820312 258.828125 145.972656 257.773438 C 146.121094 256.714844 146.242188 255.65625 146.328125 254.589844 C 146.410156 253.527344 146.464844 252.460938 146.480469 251.394531 C 146.5 250.324219 146.484375 249.257812 146.4375 248.191406 C 146.390625 247.125 146.308594 246.0625 146.195312 245 C 146.078125 243.9375 145.929688 242.882812 145.75 241.828125 C 145.570312 240.777344 145.355469 239.730469 145.109375 238.691406 C 144.867188 237.652344 144.585938 236.625 144.277344 235.601562 C 143.964844 234.582031 143.625 233.570312 143.25 232.570312 C 142.878906 231.570312 142.472656 230.582031 142.039062 229.605469 C 141.601562 228.632812 141.136719 227.671875 140.644531 226.726562 C 140.148438 225.78125 139.625 224.851562 139.070312 223.9375 C 138.515625 223.023438 137.9375 222.128906 137.328125 221.253906 C 136.71875 220.375 136.082031 219.519531 135.417969 218.683594 C 134.757812 217.84375 134.066406 217.03125 133.355469 216.234375 C 132.640625 215.441406 131.902344 214.671875 131.140625 213.921875 C 130.378906 213.175781 129.59375 212.453125 128.789062 211.753906 C 127.980469 211.054688 127.152344 210.378906 126.304688 209.734375 C 125.453125 209.085938 124.585938 208.464844 123.699219 207.875 C 122.808594 207.28125 121.90625 206.714844 120.980469 206.179688 C 120.058594 205.644531 119.121094 205.136719 118.164062 204.65625 C 117.210938 204.179688 116.242188 203.734375 115.257812 203.316406 C 114.277344 202.898438 113.28125 202.511719 112.273438 202.15625 C 111.265625 201.804688 110.25 201.480469 109.222656 201.1875 C 108.195312 200.898438 107.160156 200.636719 106.117188 200.410156 C 105.074219 200.183594 104.023438 199.992188 102.96875 199.828125 C 101.914062 199.667969 100.855469 199.539062 99.792969 199.445312 C 98.726562 199.351562 97.664062 199.289062 96.59375 199.261719 C 95.527344 199.230469 94.460938 199.234375 93.394531 199.273438 C 92.328125 199.3125 91.261719 199.382812 90.199219 199.488281 C 89.136719 199.59375 88.078125 199.730469 87.027344 199.902344 C 85.972656 200.074219 84.925781 200.277344 83.882812 200.511719 C 82.84375 200.75 81.808594 201.019531 80.785156 201.320312 C 79.761719 201.621094 78.746094 201.953125 77.742188 202.316406 C 76.738281 202.679688 75.75 203.078125 74.769531 203.503906 C 73.789062 203.929688 72.828125 204.386719 71.875 204.871094 C 70.925781 205.359375 69.992188 205.875 69.074219 206.417969 C 68.15625 206.964844 67.253906 207.535156 66.371094 208.136719 C 65.488281 208.738281 64.628906 209.367188 63.785156 210.019531 C 62.941406 210.675781 62.121094 211.355469 61.320312 212.0625 C 60.519531 212.769531 59.742188 213.5 58.984375 214.253906 C 58.230469 215.007812 57.5 215.789062 56.792969 216.589844 C 56.085938 217.390625 55.40625 218.210938 54.75 219.054688 C 54.097656 219.898438 53.46875 220.757812 52.867188 221.640625 C 52.265625 222.523438 51.695312 223.425781 51.148438 224.34375 C 50.605469 225.261719 50.089844 226.195312 49.601562 227.144531 C 49.117188 228.09375 48.660156 229.058594 48.234375 230.039062 C 47.808594 231.019531 47.410156 232.007812 47.046875 233.011719 C 46.683594 234.015625 46.351562 235.03125 46.050781 236.054688 C 45.75 237.078125 45.480469 238.113281 45.242188 239.152344 C 45.007812 240.195312 44.804688 241.242188 44.632812 242.296875 C 44.460938 243.347656 44.324219 244.40625 44.21875 245.46875 C 44.113281 246.53125 44.042969 247.597656 44.003906 248.664062 C 43.964844 249.730469 43.960938 250.796875 43.988281 251.863281 C 44.019531 252.933594 44.082031 253.996094 44.175781 255.0625 C 44.269531 256.125 44.398438 257.183594 44.558594 258.238281 C 44.71875 259.292969 44.914062 260.34375 45.140625 261.386719 C 45.367188 262.429688 45.628906 263.464844 45.917969 264.492188 C 46.210938 265.519531 46.53125 266.535156 46.886719 267.542969 C 47.242188 268.550781 47.628906 269.542969 48.046875 270.527344 C 48.464844 271.511719 48.910156 272.480469 49.386719 273.433594 C 49.867188 274.390625 50.375 275.328125 50.910156 276.25 C 51.445312 277.175781 52.011719 278.078125 52.601562 278.96875 C 53.195312 279.855469 53.816406 280.722656 54.464844 281.574219 C 55.109375 282.421875 55.785156 283.25 56.484375 284.058594 C 57.179688 284.863281 57.90625 285.648438 58.652344 286.410156 C 59.402344 287.171875 60.171875 287.910156 60.964844 288.625 C 61.757812 289.335938 62.574219 290.027344 63.414062 290.6875 C 64.25 291.351562 65.105469 291.988281 65.984375 292.597656 C 66.859375 293.203125 67.753906 293.785156 68.667969 294.339844 C 69.582031 294.894531 70.511719 295.417969 71.457031 295.914062 C 72.402344 296.40625 73.363281 296.871094 74.335938 297.308594 C 75.3125 297.742188 76.300781 298.148438 77.300781 298.519531 C 78.300781 298.894531 79.3125 299.234375 80.332031 299.546875 C 81.355469 299.855469 82.382812 300.136719 83.421875 300.382812 C 84.460938 300.625 85.507812 300.839844 86.558594 301.019531 C 87.613281 301.203125 88.667969 301.347656 89.730469 301.464844 C 90.792969 301.578125 91.855469 301.660156 92.921875 301.707031 C 93.988281 301.753906 95.054688 301.769531 96.121094 301.75 C 97.191406 301.734375 98.257812 301.679688 99.320312 301.597656 C 100.382812 301.511719 101.445312 301.394531 102.503906 301.242188 C 103.558594 301.089844 104.609375 300.90625 105.65625 300.6875 C 106.699219 300.472656 107.738281 300.222656 108.769531 299.941406 C 109.796875 299.65625 110.816406 299.34375 111.828125 299 C 112.835938 298.652344 113.835938 298.277344 114.824219 297.867188 C 115.808594 297.460938 116.78125 297.019531 117.742188 296.550781 C 118.699219 296.082031 119.644531 295.585938 120.570312 295.058594 C 121.5 294.53125 122.410156 293.972656 123.304688 293.386719 C 124.195312 292.804688 125.070312 292.191406 125.925781 291.550781 L 133.988281 299.613281 C 134.671875 300.300781 135.464844 300.828125 136.363281 301.199219 C 137.257812 301.574219 138.195312 301.757812 139.164062 301.757812 L 172.855469 301.757812 C 173.335938 301.757812 173.8125 301.710938 174.285156 301.617188 C 174.753906 301.523438 175.214844 301.386719 175.65625 301.203125 C 176.101562 301.015625 176.523438 300.792969 176.925781 300.523438 C 177.324219 300.257812 177.695312 299.953125 178.035156 299.613281 C 178.375 299.273438 178.679688 298.902344 178.945312 298.503906 C 179.210938 298.105469 179.4375 297.679688 179.621094 297.238281 C 179.804688 296.792969 179.945312 296.335938 180.039062 295.863281 C 180.132812 295.390625 180.179688 294.914062 180.179688 294.433594 C 180.179688 293.953125 180.132812 293.476562 180.039062 293.003906 C 179.945312 292.535156 179.804688 292.074219 179.621094 291.632812 C 179.4375 291.1875 179.210938 290.765625 178.945312 290.367188 C 178.679688 289.964844 178.375 289.59375 178.035156 289.253906 C 177.695312 288.914062 177.324219 288.613281 176.925781 288.34375 C 176.523438 288.078125 176.101562 287.851562 175.65625 287.667969 C 175.214844 287.484375 174.753906 287.34375 174.285156 287.25 C 173.8125 287.15625 173.335938 287.109375 172.855469 287.109375 Z M 125.777344 270.691406 L 100.40625 245.316406 C 100.0625 244.988281 99.691406 244.695312 99.292969 244.4375 C 98.894531 244.179688 98.472656 243.960938 98.03125 243.785156 C 97.589844 243.609375 97.136719 243.480469 96.667969 243.390625 C 96.199219 243.304688 95.730469 243.261719 95.253906 243.269531 C 94.78125 243.273438 94.308594 243.324219 93.84375 243.417969 C 93.378906 243.515625 92.925781 243.65625 92.488281 243.839844 C 92.050781 244.023438 91.632812 244.246094 91.238281 244.511719 C 90.84375 244.777344 90.480469 245.078125 90.144531 245.414062 C 89.808594 245.75 89.507812 246.113281 89.242188 246.507812 C 88.976562 246.902344 88.753906 247.320312 88.570312 247.757812 C 88.382812 248.195312 88.246094 248.648438 88.148438 249.113281 C 88.054688 249.578125 88.003906 250.050781 88 250.523438 C 87.992188 251 88.035156 251.472656 88.121094 251.9375 C 88.210938 252.40625 88.339844 252.859375 88.515625 253.300781 C 88.691406 253.742188 88.910156 254.164062 89.167969 254.5625 C 89.425781 254.960938 89.71875 255.332031 90.046875 255.675781 L 115.417969 281.046875 C 114.796875 281.457031 114.160156 281.851562 113.511719 282.222656 C 112.863281 282.597656 112.207031 282.949219 111.535156 283.285156 C 110.867188 283.617188 110.1875 283.929688 109.5 284.21875 C 108.8125 284.511719 108.113281 284.78125 107.410156 285.027344 C 106.703125 285.277344 105.992188 285.503906 105.273438 285.710938 C 104.554688 285.914062 103.832031 286.097656 103.101562 286.257812 C 102.371094 286.417969 101.636719 286.554688 100.898438 286.671875 C 100.160156 286.785156 99.417969 286.878906 98.671875 286.949219 C 97.929688 287.019531 97.183594 287.066406 96.4375 287.089844 C 95.6875 287.117188 94.941406 287.117188 94.195312 287.097656 C 93.445312 287.074219 92.703125 287.03125 91.957031 286.964844 C 91.210938 286.894531 90.46875 286.808594 89.730469 286.695312 C 88.992188 286.582031 88.257812 286.445312 87.527344 286.289062 C 86.796875 286.132812 86.070312 285.953125 85.351562 285.75 C 84.632812 285.546875 83.917969 285.324219 83.210938 285.078125 C 82.507812 284.832031 81.808594 284.566406 81.117188 284.277344 C 80.429688 283.988281 79.75 283.679688 79.078125 283.351562 C 78.40625 283.019531 77.746094 282.667969 77.097656 282.296875 C 76.449219 281.929688 75.8125 281.539062 75.1875 281.128906 C 74.5625 280.71875 73.949219 280.289062 73.347656 279.84375 C 72.75 279.394531 72.164062 278.929688 71.59375 278.449219 C 71.023438 277.964844 70.46875 277.464844 69.929688 276.949219 C 69.390625 276.429688 68.863281 275.898438 68.359375 275.347656 C 67.851562 274.800781 67.359375 274.238281 66.886719 273.65625 C 66.414062 273.078125 65.960938 272.484375 65.523438 271.878906 C 65.085938 271.269531 64.671875 270.652344 64.273438 270.019531 C 63.875 269.386719 63.496094 268.742188 63.136719 268.085938 C 62.777344 267.429688 62.4375 266.765625 62.121094 266.089844 C 61.800781 265.410156 61.503906 264.726562 61.226562 264.03125 C 60.953125 263.335938 60.695312 262.632812 60.464844 261.925781 C 60.230469 261.214844 60.019531 260.496094 59.832031 259.773438 C 59.640625 259.050781 59.472656 258.324219 59.328125 257.589844 C 59.183594 256.855469 59.0625 256.117188 58.964844 255.378906 C 58.863281 254.636719 58.789062 253.894531 58.734375 253.148438 C 58.679688 252.402344 58.648438 251.65625 58.640625 250.910156 C 58.632812 250.160156 58.648438 249.414062 58.683594 248.667969 C 58.722656 247.921875 58.78125 247.175781 58.867188 246.433594 C 58.949219 245.691406 59.054688 244.949219 59.183594 244.214844 C 59.3125 243.476562 59.464844 242.746094 59.636719 242.019531 C 59.8125 241.292969 60.007812 240.570312 60.222656 239.855469 C 60.441406 239.140625 60.679688 238.433594 60.941406 237.730469 C 61.203125 237.03125 61.484375 236.339844 61.789062 235.65625 C 62.089844 234.972656 62.414062 234.300781 62.761719 233.636719 C 63.105469 232.972656 63.46875 232.320312 63.855469 231.679688 C 64.238281 231.039062 64.644531 230.410156 65.066406 229.792969 C 65.488281 229.175781 65.929688 228.574219 66.390625 227.984375 C 66.851562 227.394531 67.328125 226.820312 67.824219 226.261719 C 68.320312 225.703125 68.832031 225.15625 69.359375 224.628906 C 69.886719 224.101562 70.433594 223.585938 70.992188 223.09375 C 71.550781 222.597656 72.125 222.121094 72.714844 221.660156 C 73.304688 221.199219 73.90625 220.757812 74.523438 220.335938 C 75.140625 219.910156 75.769531 219.507812 76.410156 219.125 C 77.050781 218.738281 77.703125 218.375 78.367188 218.03125 C 79.03125 217.683594 79.703125 217.359375 80.386719 217.058594 C 81.070312 216.753906 81.761719 216.472656 82.460938 216.210938 C 83.164062 215.949219 83.871094 215.710938 84.585938 215.492188 C 85.300781 215.277344 86.023438 215.078125 86.75 214.90625 C 87.476562 214.734375 88.207031 214.582031 88.945312 214.453125 C 89.679688 214.324219 90.421875 214.21875 91.164062 214.136719 C 91.90625 214.050781 92.652344 213.992188 93.398438 213.953125 C 94.144531 213.917969 94.890625 213.902344 95.640625 213.910156 C 96.386719 213.917969 97.132812 213.949219 97.878906 214.003906 C 98.625 214.058594 99.367188 214.132812 100.109375 214.234375 C 100.851562 214.332031 101.585938 214.453125 102.320312 214.597656 C 103.054688 214.742188 103.78125 214.910156 104.503906 215.101562 C 105.226562 215.289062 105.945312 215.5 106.65625 215.734375 C 107.367188 215.964844 108.066406 216.222656 108.761719 216.496094 C 109.457031 216.773438 110.144531 217.070312 110.820312 217.390625 C 111.496094 217.707031 112.160156 218.046875 112.816406 218.40625 C 113.472656 218.765625 114.117188 219.144531 114.75 219.542969 C 115.382812 219.941406 116.003906 220.355469 116.609375 220.792969 C 117.214844 221.230469 117.808594 221.683594 118.386719 222.15625 C 118.96875 222.628906 119.53125 223.121094 120.082031 223.628906 C 120.628906 224.136719 121.164062 224.660156 121.679688 225.199219 C 122.195312 225.738281 122.695312 226.292969 123.179688 226.863281 C 123.664062 227.433594 124.128906 228.019531 124.574219 228.621094 C 125.019531 229.21875 125.449219 229.832031 125.859375 230.457031 C 126.269531 231.082031 126.660156 231.71875 127.03125 232.367188 C 127.398438 233.015625 127.75 233.675781 128.082031 234.347656 C 128.410156 235.019531 128.71875 235.699219 129.007812 236.386719 C 129.296875 237.078125 129.5625 237.777344 129.808594 238.480469 C 130.054688 239.1875 130.277344 239.902344 130.480469 240.621094 C 130.683594 241.339844 130.863281 242.066406 131.019531 242.796875 C 131.175781 243.527344 131.3125 244.261719 131.425781 245 C 131.539062 245.742188 131.628906 246.480469 131.695312 247.226562 C 131.761719 247.972656 131.804688 248.71875 131.828125 249.464844 C 131.847656 250.210938 131.847656 250.957031 131.824219 251.707031 C 131.796875 252.453125 131.75 253.199219 131.679688 253.941406 C 131.609375 254.6875 131.515625 255.429688 131.402344 256.167969 C 131.285156 256.90625 131.148438 257.640625 130.988281 258.371094 C 130.828125 259.101562 130.644531 259.824219 130.441406 260.542969 C 130.234375 261.261719 130.007812 261.976562 129.757812 262.679688 C 129.511719 263.386719 129.242188 264.082031 128.949219 264.769531 C 128.660156 265.457031 128.347656 266.136719 128.011719 266.808594 C 127.679688 267.476562 127.328125 268.132812 126.953125 268.78125 C 126.582031 269.429688 126.1875 270.066406 125.777344 270.691406 Z M 125.777344 270.691406 " fill-opacity="1" fill-rule="nonzero"/></svg>